M48
; DRILL file {KiCad (5.1.9)-1} date 08/30/21 10:52:17
; FORMAT={-:-/ absolute / inch / decimal}
; #@! TF.CreationDate,2021-08-30T10:52:17+01:00
; #@! TF.GenerationSoftware,Kicad,Pcbnew,(5.1.9)-1
FMAT,2
INCH
T1C0.0157
T2C0.0394
T3C0.0630
T4C0.0748
T5C0.1260
%
G90
G05
T1
X1.2Y-2.29
X1.2Y-2.46
X1.28Y-2.14
X1.39Y-2.18
X1.7175Y-2.7575
X1.74Y-1.53
X1.775Y-2.8575
X1.7775Y-2.545
X1.78Y-2.71
X1.835Y-2.58
X1.84Y-1.56
X1.849Y-2.9247
X1.88Y-1.86
X1.9Y-2.87
X1.91Y-1.62
X1.936Y-2.8164
X1.959Y-2.549
X1.98Y-1.81
X2.015Y-2.825
X2.085Y-2.425
X2.24Y-1.54
X2.32Y-1.53
X2.355Y-2.425
T2
X1.1Y-1.125
X1.1Y-1.225
X1.1Y-1.325
X1.1Y-1.425
X1.1Y-1.525
X1.1Y-1.625
X1.1Y-1.725
X1.1Y-1.825
X1.1Y-1.925
X1.1Y-2.025
X1.1Y-2.125
X1.1Y-2.225
X1.1Y-2.325
X1.1Y-2.425
X1.1Y-2.525
X1.1Y-2.625
X1.1Y-2.725
X1.1Y-2.825
X1.1Y-2.925
X1.1Y-3.025
X1.515Y-2.77
X1.515Y-2.87
X1.515Y-2.97
X1.515Y-3.07
X2.1875Y-3.025
X2.325Y-2.77
X2.42Y-1.275
X2.6Y-1.125
X2.6Y-1.225
X2.6Y-1.325
X2.6Y-1.425
X2.6Y-1.525
X2.6Y-1.625
X2.6Y-1.725
X2.6Y-1.825
X2.6Y-1.925
X2.6Y-2.025
X2.6Y-2.125
X2.6Y-2.225
X2.6Y-2.325
X2.6Y-2.425
X2.6Y-2.525
X2.6Y-2.625
X2.6Y-2.725
X2.6Y-2.825
X2.6Y-2.925
X2.6Y-3.025
T3
X1.4Y-1.2
X2.15Y-1.2
T4
X1.2986Y-1.0986
X1.2986Y-1.3014
X1.5014Y-1.0986
X1.5014Y-1.3014
X2.0486Y-1.0986
X2.0486Y-1.3014
X2.2514Y-1.0986
X2.2514Y-1.3014
T5
X1.3075Y-3.0
X1.78Y-1.15
X2.395Y-3.0
T0
M30
