%TF.GenerationSoftware,KiCad,Pcbnew,(5.1.9)-1*%
%TF.CreationDate,2021-08-30T10:52:12+01:00*%
%TF.ProjectId,projecto1,70726f6a-6563-4746-9f31-2e6b69636164,1.5*%
%TF.SameCoordinates,Original*%
%TF.FileFunction,Copper,L1,Top*%
%TF.FilePolarity,Positive*%
%FSLAX46Y46*%
G04 Gerber Fmt 4.6, Leading zero omitted, Abs format (unit mm)*
G04 Created by KiCad (PCBNEW (5.1.9)-1) date 2021-08-30 10:52:12*
%MOMM*%
%LPD*%
G01*
G04 APERTURE LIST*
%TA.AperFunction,ComponentPad*%
%ADD10R,1.700000X1.700000*%
%TD*%
%TA.AperFunction,SMDPad,CuDef*%
%ADD11R,2.700000X3.000000*%
%TD*%
%TA.AperFunction,SMDPad,CuDef*%
%ADD12R,0.300000X1.200000*%
%TD*%
%TA.AperFunction,ComponentPad*%
%ADD13O,1.700000X1.700000*%
%TD*%
%TA.AperFunction,ComponentPad*%
%ADD14C,2.400000*%
%TD*%
%TA.AperFunction,ComponentPad*%
%ADD15C,2.850000*%
%TD*%
%TA.AperFunction,ViaPad*%
%ADD16C,0.800000*%
%TD*%
%TA.AperFunction,Conductor*%
%ADD17C,0.500000*%
%TD*%
%TA.AperFunction,Conductor*%
%ADD18C,0.250000*%
%TD*%
%TA.AperFunction,Conductor*%
%ADD19C,0.254000*%
%TD*%
%TA.AperFunction,Conductor*%
%ADD20C,0.100000*%
%TD*%
G04 APERTURE END LIST*
D10*
%TO.P,J4,1*%
%TO.N,3V3*%
X59055000Y-70358000D03*
%TD*%
D11*
%TO.P,J2,MP2*%
%TO.N,N/C*%
X42310000Y-75297000D03*
%TO.P,J2,MP1*%
X51670000Y-75297000D03*
D12*
%TO.P,J2,12*%
%TO.N,AD_trig*%
X44240000Y-77157000D03*
%TO.P,J2,11*%
%TO.N,GND*%
X44740000Y-77157000D03*
%TO.P,J2,10*%
%TO.N,AD_sp*%
X45240000Y-77157000D03*
%TO.P,J2,9*%
%TO.N,Fvref*%
X45740000Y-77157000D03*
%TO.P,J2,8*%
%TO.N,CLK*%
X46240000Y-77157000D03*
%TO.P,J2,7*%
%TO.N,Reset*%
X46740000Y-77157000D03*
%TO.P,J2,6*%
%TO.N,Fvref*%
X47240000Y-77157000D03*
%TO.P,J2,5*%
%TO.N,Video*%
X47740000Y-77157000D03*
%TO.P,J2,4*%
%TO.N,Fvref*%
X48240000Y-77157000D03*
%TO.P,J2,3*%
X48740000Y-77157000D03*
%TO.P,J2,2*%
%TO.N,3V3*%
X49240000Y-77157000D03*
%TO.P,J2,1*%
%TO.N,Cf_select*%
X49740000Y-77157000D03*
%TD*%
D13*
%TO.P,J8,4*%
%TO.N,AD_trig*%
X38481000Y-77978000D03*
%TO.P,J8,3*%
%TO.N,AD_sp*%
X38481000Y-75438000D03*
%TO.P,J8,2*%
%TO.N,Video*%
X38481000Y-72898000D03*
D10*
%TO.P,J8,1*%
%TO.N,CLK*%
X38481000Y-70358000D03*
%TD*%
%TO.P,R5,2*%
%TO.N,3V3*%
%TA.AperFunction,SMDPad,CuDef*%
G36*
G01*
X61008500Y-57711500D02*
X61008500Y-56461500D01*
G75*
G02*
X61258500Y-56211500I250000J0D01*
G01*
X62058500Y-56211500D01*
G75*
G02*
X62308500Y-56461500I0J-250000D01*
G01*
X62308500Y-57711500D01*
G75*
G02*
X62058500Y-57961500I-250000J0D01*
G01*
X61258500Y-57961500D01*
G75*
G02*
X61008500Y-57711500I0J250000D01*
G01*
G37*
%TD.AperFunction*%
%TO.P,R5,1*%
%TO.N,SCL*%
%TA.AperFunction,SMDPad,CuDef*%
G36*
G01*
X57908500Y-57711500D02*
X57908500Y-56461500D01*
G75*
G02*
X58158500Y-56211500I250000J0D01*
G01*
X58958500Y-56211500D01*
G75*
G02*
X59208500Y-56461500I0J-250000D01*
G01*
X59208500Y-57711500D01*
G75*
G02*
X58958500Y-57961500I-250000J0D01*
G01*
X58158500Y-57961500D01*
G75*
G02*
X57908500Y-57711500I0J250000D01*
G01*
G37*
%TD.AperFunction*%
%TD*%
%TO.P,R4,2*%
%TO.N,3V3*%
%TA.AperFunction,SMDPad,CuDef*%
G36*
G01*
X60933500Y-54155500D02*
X60933500Y-52905500D01*
G75*
G02*
X61183500Y-52655500I250000J0D01*
G01*
X61983500Y-52655500D01*
G75*
G02*
X62233500Y-52905500I0J-250000D01*
G01*
X62233500Y-54155500D01*
G75*
G02*
X61983500Y-54405500I-250000J0D01*
G01*
X61183500Y-54405500D01*
G75*
G02*
X60933500Y-54155500I0J250000D01*
G01*
G37*
%TD.AperFunction*%
%TO.P,R4,1*%
%TO.N,SDA*%
%TA.AperFunction,SMDPad,CuDef*%
G36*
G01*
X57833500Y-54155500D02*
X57833500Y-52905500D01*
G75*
G02*
X58083500Y-52655500I250000J0D01*
G01*
X58883500Y-52655500D01*
G75*
G02*
X59133500Y-52905500I0J-250000D01*
G01*
X59133500Y-54155500D01*
G75*
G02*
X58883500Y-54405500I-250000J0D01*
G01*
X58083500Y-54405500D01*
G75*
G02*
X57833500Y-54155500I0J250000D01*
G01*
G37*
%TD.AperFunction*%
%TD*%
%TO.P,J5,1*%
%TO.N,5V*%
X61468000Y-32385000D03*
%TD*%
%TO.P,J9,1*%
%TO.N,GND*%
X55562500Y-76835000D03*
%TD*%
D14*
%TO.P,J7,1*%
%TO.N,PWM*%
X54610000Y-30480000D03*
D15*
%TO.P,J7,2*%
%TO.N,GND*%
X52035000Y-27905000D03*
%TO.P,J7,3*%
%TO.N,N/C*%
X52035000Y-33055000D03*
%TO.P,J7,4*%
%TO.N,GND*%
X57185000Y-33055000D03*
%TO.P,J7,5*%
%TO.N,N/C*%
X57185000Y-27905000D03*
%TD*%
%TO.P,J6,5*%
%TO.N,N/C*%
X38135000Y-27905000D03*
%TO.P,J6,4*%
%TO.N,GND*%
X38135000Y-33055000D03*
%TO.P,J6,3*%
%TO.N,N/C*%
X32985000Y-33055000D03*
%TO.P,J6,2*%
%TO.N,GND*%
X32985000Y-27905000D03*
D14*
%TO.P,J6,1*%
%TO.N,/ANALOG_OUT*%
X35560000Y-30480000D03*
%TD*%
D13*
%TO.P,J3,20*%
%TO.N,DAC_D0*%
X66040000Y-76835000D03*
%TO.P,J3,19*%
%TO.N,DAC_D1*%
X66040000Y-74295000D03*
%TO.P,J3,18*%
%TO.N,DAC_D2*%
X66040000Y-71755000D03*
%TO.P,J3,17*%
%TO.N,DAC_D3*%
X66040000Y-69215000D03*
%TO.P,J3,16*%
%TO.N,N/C*%
X66040000Y-66675000D03*
%TO.P,J3,15*%
X66040000Y-64135000D03*
%TO.P,J3,14*%
%TO.N,CS_DAC*%
X66040000Y-61595000D03*
%TO.P,J3,13*%
%TO.N,N/C*%
X66040000Y-59055000D03*
%TO.P,J3,12*%
X66040000Y-56515000D03*
%TO.P,J3,11*%
%TO.N,DAC_D7*%
X66040000Y-53975000D03*
%TO.P,J3,10*%
%TO.N,DAC_D6*%
X66040000Y-51435000D03*
%TO.P,J3,9*%
%TO.N,DAC_D5*%
X66040000Y-48895000D03*
%TO.P,J3,8*%
%TO.N,DAC_D4*%
X66040000Y-46355000D03*
%TO.P,J3,7*%
%TO.N,N/C*%
X66040000Y-43815000D03*
%TO.P,J3,6*%
%TO.N,PWM*%
X66040000Y-41275000D03*
%TO.P,J3,5*%
%TO.N,SCL*%
X66040000Y-38735000D03*
%TO.P,J3,4*%
%TO.N,SDA*%
X66040000Y-36195000D03*
%TO.P,J3,3*%
%TO.N,N/C*%
X66040000Y-33655000D03*
%TO.P,J3,2*%
%TO.N,GND*%
X66040000Y-31115000D03*
D10*
%TO.P,J3,1*%
X66040000Y-28575000D03*
%TD*%
D13*
%TO.P,J1,20*%
%TO.N,AD_trig*%
X27940000Y-76835000D03*
%TO.P,J1,19*%
%TO.N,AD_sp*%
X27940000Y-74295000D03*
%TO.P,J1,18*%
%TO.N,N/C*%
X27940000Y-71755000D03*
%TO.P,J1,17*%
%TO.N,PGA_Output*%
X27940000Y-69215000D03*
%TO.P,J1,16*%
%TO.N,CLK*%
X27940000Y-66675000D03*
%TO.P,J1,15*%
%TO.N,MOSI*%
X27940000Y-64135000D03*
%TO.P,J1,14*%
%TO.N,MISO*%
X27940000Y-61595000D03*
%TO.P,J1,13*%
%TO.N,SCK*%
X27940000Y-59055000D03*
%TO.P,J1,12*%
%TO.N,Cf_select*%
X27940000Y-56515000D03*
%TO.P,J1,11*%
%TO.N,Reset*%
X27940000Y-53975000D03*
%TO.P,J1,10*%
%TO.N,CS_PGA*%
X27940000Y-51435000D03*
%TO.P,J1,9*%
%TO.N,CS_ADC*%
X27940000Y-48895000D03*
%TO.P,J1,8*%
%TO.N,N/C*%
X27940000Y-46355000D03*
%TO.P,J1,7*%
X27940000Y-43815000D03*
%TO.P,J1,6*%
X27940000Y-41275000D03*
%TO.P,J1,5*%
X27940000Y-38735000D03*
%TO.P,J1,4*%
X27940000Y-36195000D03*
%TO.P,J1,3*%
X27940000Y-33655000D03*
%TO.P,J1,2*%
%TO.N,GND*%
X27940000Y-31115000D03*
D10*
%TO.P,J1,1*%
%TO.N,MCU3V3*%
X27940000Y-28575000D03*
%TD*%
D16*
%TO.N,3V3*%
X48514000Y-41148000D03*
X46736000Y-39624000D03*
X44196000Y-38862000D03*
X47752000Y-47244000D03*
X50292000Y-45974000D03*
X49758000Y-64744000D03*
%TO.N,CS_DAC*%
X59817000Y-61595000D03*
X52959000Y-61595000D03*
%TO.N,SCK*%
X30480000Y-58166000D03*
X30480000Y-62484000D03*
%TO.N,CS_PGA*%
X35306000Y-55372000D03*
%TO.N,CS_ADC*%
X32512000Y-54356000D03*
%TO.N,Cf_select*%
X51181000Y-71755000D03*
X49175278Y-71535471D03*
%TO.N,Reset*%
X45212000Y-68834000D03*
X46965010Y-74286119D03*
%TO.N,CLK*%
X43624500Y-70040500D03*
X45085000Y-72580500D03*
%TO.N,PWM*%
X58928000Y-38862000D03*
%TO.N,SCL*%
X46608992Y-65532000D03*
%TO.N,SDA*%
X45148500Y-64643000D03*
%TO.N,/ANALOG_OUT*%
X56896000Y-39116000D03*
%TO.N,Fvref*%
X48260000Y-72898000D03*
%TD*%
D17*
%TO.N,3V3*%
X46736000Y-39624000D02*
X45212000Y-39624000D01*
X45212000Y-39624000D02*
X44958000Y-39624000D01*
X44958000Y-39624000D02*
X44196000Y-38862000D01*
X44196000Y-38862000D02*
X44196000Y-38862000D01*
X48514000Y-41148000D02*
X48514000Y-45212000D01*
X48514000Y-45212000D02*
X47752000Y-45974000D01*
X47752000Y-45974000D02*
X47752000Y-47244000D01*
X47752000Y-47244000D02*
X47752000Y-47244000D01*
X48514000Y-45212000D02*
X49276000Y-45974000D01*
X49276000Y-45974000D02*
X50292000Y-45974000D01*
X50292000Y-45974000D02*
X50292000Y-45974000D01*
D18*
X61583500Y-57011500D02*
X61658500Y-57086500D01*
X61583500Y-53530500D02*
X61583500Y-57011500D01*
X61658500Y-57086500D02*
X61658500Y-57658000D01*
X49758000Y-63907000D02*
X49758000Y-64744000D01*
X51371500Y-62293500D02*
X49758000Y-63907000D01*
X51371500Y-58928000D02*
X51371500Y-62293500D01*
X51879500Y-58420000D02*
X51371500Y-58928000D01*
X61658500Y-57150000D02*
X60388500Y-58420000D01*
X60388500Y-58420000D02*
X51879500Y-58420000D01*
X61658500Y-57086500D02*
X61658500Y-57150000D01*
X49240000Y-72559496D02*
X49240000Y-75846500D01*
X49693998Y-72105498D02*
X49240000Y-72559496D01*
X49240000Y-75846500D02*
X49240000Y-77161000D01*
X49693998Y-72041998D02*
X49693998Y-72105498D01*
X50157999Y-71577997D02*
X49693998Y-72041998D01*
X50157999Y-65143999D02*
X50157999Y-71577997D01*
X49758000Y-64744000D02*
X50157999Y-65143999D01*
%TO.N,CS_DAC*%
X59817000Y-61595000D02*
X52959000Y-61595000D01*
X52959000Y-61595000D02*
X52959000Y-61595000D01*
%TO.N,SCK*%
X29591000Y-59055000D02*
X27940000Y-59055000D01*
X30480000Y-59436000D02*
X30099000Y-59055000D01*
X30099000Y-59055000D02*
X29591000Y-59055000D01*
X30480000Y-58674000D02*
X30099000Y-59055000D01*
X30480000Y-59436000D02*
X30480000Y-62484000D01*
X30480000Y-58674000D02*
X30480000Y-58166000D01*
%TO.N,CS_PGA*%
X27940000Y-51435000D02*
X28321000Y-51435000D01*
X35052000Y-55118000D02*
X35306000Y-55372000D01*
X31623000Y-55118000D02*
X35052000Y-55118000D01*
X27940000Y-51435000D02*
X31623000Y-55118000D01*
%TO.N,Video*%
X39751000Y-71628000D02*
X38481000Y-72898000D01*
X45408996Y-71628000D02*
X39751000Y-71628000D01*
X47740000Y-73959004D02*
X45408996Y-71628000D01*
X47740000Y-77161000D02*
X47740000Y-73959004D01*
X47764999Y-77136001D02*
X47740000Y-77161000D01*
%TO.N,CS_ADC*%
X27940000Y-48895000D02*
X29718000Y-50673000D01*
X29718000Y-50673000D02*
X29718000Y-51562000D01*
X29718000Y-51562000D02*
X32512000Y-54356000D01*
X32512000Y-54356000D02*
X32512000Y-54356000D01*
%TO.N,Cf_select*%
X42672000Y-68834000D02*
X42672000Y-68834000D01*
X49276000Y-71628000D02*
X49276000Y-71628000D01*
X49740000Y-73196000D02*
X51181000Y-71755000D01*
X27940000Y-56515000D02*
X30353000Y-56515000D01*
X49740000Y-77161000D02*
X49740000Y-73196000D01*
X44138998Y-68834000D02*
X46840469Y-71535471D01*
X30353000Y-56515000D02*
X42672000Y-68834000D01*
X46840469Y-71535471D02*
X49175278Y-71535471D01*
X42672000Y-68834000D02*
X44138998Y-68834000D01*
%TO.N,Reset*%
X43434000Y-68072000D02*
X44450000Y-68072000D01*
X29337000Y-53975000D02*
X43434000Y-68072000D01*
X27940000Y-53975000D02*
X29337000Y-53975000D01*
X44450000Y-68072000D02*
X45212000Y-68834000D01*
X45212000Y-68834000D02*
X45212000Y-68834000D01*
X46740000Y-74511129D02*
X46965010Y-74286119D01*
X46740000Y-77161000D02*
X46740000Y-74511129D01*
%TO.N,CLK*%
X29337000Y-66675000D02*
X30734000Y-68072000D01*
X27940000Y-66675000D02*
X29337000Y-66675000D01*
X43624500Y-70040500D02*
X43624500Y-70040500D01*
X30734000Y-68072000D02*
X30734000Y-68135500D01*
X30734000Y-68072000D02*
X30734000Y-69342000D01*
X31750000Y-70358000D02*
X38735000Y-70358000D01*
X30734000Y-69342000D02*
X31750000Y-70358000D01*
X43307000Y-70358000D02*
X43624500Y-70040500D01*
X38735000Y-70358000D02*
X43307000Y-70358000D01*
X46240000Y-73735500D02*
X45085000Y-72580500D01*
X46240000Y-77161000D02*
X46240000Y-73735500D01*
%TO.N,AD_sp*%
X28067000Y-74295000D02*
X27940000Y-74295000D01*
X30988000Y-71374000D02*
X28067000Y-74295000D01*
X35941000Y-71374000D02*
X30988000Y-71374000D01*
X39052500Y-75755500D02*
X38735000Y-75438000D01*
X35941000Y-71374000D02*
X35941000Y-71437500D01*
X35941000Y-71437500D02*
X37211000Y-72707500D01*
X37211000Y-72707500D02*
X37211000Y-73914000D01*
X41084500Y-72834500D02*
X38481000Y-75438000D01*
X43815000Y-72834500D02*
X41084500Y-72834500D01*
X45240000Y-74259500D02*
X43815000Y-72834500D01*
X45240000Y-77161000D02*
X45240000Y-74259500D01*
X38481000Y-75184000D02*
X38481000Y-75438000D01*
X37211000Y-73914000D02*
X38481000Y-75184000D01*
%TO.N,AD_trig*%
X44196000Y-77117000D02*
X44240000Y-77161000D01*
X37274500Y-76771500D02*
X38481000Y-77978000D01*
X34798000Y-72390000D02*
X37274500Y-74866500D01*
X37274500Y-74866500D02*
X37274500Y-76771500D01*
X31750000Y-72390000D02*
X34798000Y-72390000D01*
X29718000Y-74422000D02*
X31750000Y-72390000D01*
X29718000Y-75057000D02*
X29718000Y-74422000D01*
X27940000Y-76835000D02*
X29718000Y-75057000D01*
X43609500Y-77978000D02*
X44240000Y-77347500D01*
X38481000Y-77978000D02*
X43609500Y-77978000D01*
D17*
%TO.N,PWM*%
X54610000Y-34544000D02*
X54610000Y-30480000D01*
X58928000Y-38862000D02*
X54610000Y-34544000D01*
D18*
%TO.N,SCL*%
X59944000Y-55701000D02*
X58558500Y-57086500D01*
X59944000Y-44831000D02*
X59944000Y-55701000D01*
X66040000Y-38735000D02*
X59944000Y-44831000D01*
X57721500Y-57086500D02*
X58558500Y-57086500D01*
X51371500Y-57086500D02*
X57721500Y-57086500D01*
X50419000Y-58039000D02*
X51371500Y-57086500D01*
X50419000Y-61912500D02*
X50419000Y-58039000D01*
X46799500Y-65532000D02*
X50419000Y-61912500D01*
X46608992Y-65532000D02*
X46799500Y-65532000D01*
%TO.N,SDA*%
X46355000Y-64516000D02*
X46291500Y-64579500D01*
X45402500Y-64643000D02*
X45402500Y-64643000D01*
X46355000Y-64516000D02*
X46228000Y-64643000D01*
X46228000Y-64643000D02*
X45148500Y-64643000D01*
X59182000Y-52832000D02*
X58483500Y-53530500D01*
X59182000Y-43053000D02*
X59182000Y-52832000D01*
X66040000Y-36195000D02*
X59182000Y-43053000D01*
X58483500Y-54800500D02*
X58483500Y-53530500D01*
X56896000Y-56388000D02*
X58483500Y-54800500D01*
X50673000Y-56388000D02*
X56896000Y-56388000D01*
X49403000Y-57658000D02*
X50673000Y-56388000D01*
X49403000Y-61531500D02*
X49403000Y-57658000D01*
X46418500Y-64516000D02*
X49403000Y-61531500D01*
X46355000Y-64516000D02*
X46418500Y-64516000D01*
%TO.N,GND*%
X44740000Y-77161000D02*
X44740000Y-78268000D01*
X44740000Y-78268000D02*
X45212000Y-78740000D01*
X45212000Y-78740000D02*
X52324000Y-78740000D01*
X54229000Y-76835000D02*
X55245000Y-76835000D01*
X52324000Y-78740000D02*
X54229000Y-76835000D01*
%TO.N,/ANALOG_OUT*%
X56896000Y-39116000D02*
X56388000Y-38608000D01*
X56388000Y-38608000D02*
X56388000Y-37846000D01*
X56388000Y-37846000D02*
X53848000Y-35306000D01*
X53848000Y-35306000D02*
X36322000Y-35306000D01*
X35560000Y-34544000D02*
X35560000Y-30480000D01*
X36322000Y-35306000D02*
X35560000Y-34544000D01*
%TO.N,Fvref*%
X48164999Y-78136001D02*
X47402001Y-78136001D01*
X48240000Y-78061000D02*
X48164999Y-78136001D01*
X48240000Y-77161000D02*
X48240000Y-78061000D01*
X47240000Y-77974000D02*
X47240000Y-77161000D01*
X47402001Y-78136001D02*
X47240000Y-77974000D01*
X45740000Y-78046002D02*
X45740000Y-77161000D01*
X45829999Y-78136001D02*
X45740000Y-78046002D01*
X47402001Y-78136001D02*
X45829999Y-78136001D01*
X48740000Y-77752000D02*
X48740000Y-77161000D01*
X48431000Y-78061000D02*
X48740000Y-77752000D01*
X48240000Y-78061000D02*
X48431000Y-78061000D01*
X48240000Y-77161000D02*
X48240000Y-72918000D01*
X48240000Y-72918000D02*
X48260000Y-72898000D01*
X48260000Y-72954000D02*
X48260000Y-72898000D01*
%TD*%
D19*
%TO.N,GND*%
X31873342Y-26158868D02*
X31726355Y-26466750D01*
X32985000Y-27725395D01*
X34243645Y-26466750D01*
X34096658Y-26158868D01*
X33950788Y-26085000D01*
X37150921Y-26085000D01*
X36821827Y-26304894D01*
X36534894Y-26591827D01*
X36309452Y-26929224D01*
X36154165Y-27304120D01*
X36075000Y-27702108D01*
X36075000Y-28107892D01*
X36154165Y-28505880D01*
X36271186Y-28788393D01*
X36095250Y-28715518D01*
X35740732Y-28645000D01*
X35379268Y-28645000D01*
X35024750Y-28715518D01*
X34846170Y-28789488D01*
X34914455Y-28654644D01*
X35023629Y-28263822D01*
X35054460Y-27859211D01*
X35005763Y-27456359D01*
X34879408Y-27070748D01*
X34731132Y-26793342D01*
X34423250Y-26646355D01*
X33164605Y-27905000D01*
X33178748Y-27919143D01*
X32999143Y-28098748D01*
X32985000Y-28084605D01*
X31726355Y-29343250D01*
X31873342Y-29651132D01*
X32235356Y-29834455D01*
X32626178Y-29943629D01*
X33030789Y-29974460D01*
X33433641Y-29925763D01*
X33819252Y-29799408D01*
X33866091Y-29774372D01*
X33795518Y-29944750D01*
X33725000Y-30299268D01*
X33725000Y-30660732D01*
X33795518Y-31015250D01*
X33868393Y-31191186D01*
X33585880Y-31074165D01*
X33187892Y-30995000D01*
X32782108Y-30995000D01*
X32384120Y-31074165D01*
X32009224Y-31229452D01*
X31671827Y-31454894D01*
X31384894Y-31741827D01*
X31159452Y-32079224D01*
X31004165Y-32454120D01*
X30925000Y-32852108D01*
X30925000Y-33257892D01*
X31004165Y-33655880D01*
X31159452Y-34030776D01*
X31384894Y-34368173D01*
X31671827Y-34655106D01*
X32009224Y-34880548D01*
X32384120Y-35035835D01*
X32782108Y-35115000D01*
X33187892Y-35115000D01*
X33585880Y-35035835D01*
X33960776Y-34880548D01*
X34298173Y-34655106D01*
X34585106Y-34368173D01*
X34800000Y-34046562D01*
X34800000Y-34506677D01*
X34796324Y-34544000D01*
X34800000Y-34581322D01*
X34800000Y-34581332D01*
X34810997Y-34692985D01*
X34846030Y-34808475D01*
X34854454Y-34836246D01*
X34925026Y-34968276D01*
X34938304Y-34984455D01*
X35019999Y-35084001D01*
X35049002Y-35107803D01*
X35758201Y-35817002D01*
X35781999Y-35846001D01*
X35897724Y-35940974D01*
X36029753Y-36011546D01*
X36173014Y-36055003D01*
X36284667Y-36066000D01*
X36284675Y-36066000D01*
X36322000Y-36069676D01*
X36359325Y-36066000D01*
X53533199Y-36066000D01*
X55628000Y-38160803D01*
X55628000Y-38570678D01*
X55624324Y-38608000D01*
X55628000Y-38645322D01*
X55628000Y-38645332D01*
X55638997Y-38756985D01*
X55676695Y-38881260D01*
X55682454Y-38900246D01*
X55753026Y-39032276D01*
X55755664Y-39035490D01*
X55847999Y-39148001D01*
X55861000Y-39158671D01*
X55861000Y-39217939D01*
X55900774Y-39417898D01*
X55978795Y-39606256D01*
X56092063Y-39775774D01*
X56236226Y-39919937D01*
X56405744Y-40033205D01*
X56594102Y-40111226D01*
X56794061Y-40151000D01*
X56997939Y-40151000D01*
X57197898Y-40111226D01*
X57386256Y-40033205D01*
X57555774Y-39919937D01*
X57699937Y-39775774D01*
X57813205Y-39606256D01*
X57891226Y-39417898D01*
X57931000Y-39217939D01*
X57931000Y-39154979D01*
X57932774Y-39163898D01*
X58010795Y-39352256D01*
X58124063Y-39521774D01*
X58268226Y-39665937D01*
X58437744Y-39779205D01*
X58626102Y-39857226D01*
X58826061Y-39897000D01*
X59029939Y-39897000D01*
X59229898Y-39857226D01*
X59418256Y-39779205D01*
X59587774Y-39665937D01*
X59731937Y-39521774D01*
X59845205Y-39352256D01*
X59923226Y-39163898D01*
X59963000Y-38963939D01*
X59963000Y-38760061D01*
X59923226Y-38560102D01*
X59845205Y-38371744D01*
X59731937Y-38202226D01*
X59587774Y-38058063D01*
X59418256Y-37944795D01*
X59229898Y-37866774D01*
X59173044Y-37855465D01*
X56165254Y-34847676D01*
X56435356Y-34984455D01*
X56826178Y-35093629D01*
X57230789Y-35124460D01*
X57633641Y-35075763D01*
X58019252Y-34949408D01*
X58296658Y-34801132D01*
X58443645Y-34493250D01*
X57185000Y-33234605D01*
X57170858Y-33248748D01*
X56991253Y-33069143D01*
X57005395Y-33055000D01*
X57364605Y-33055000D01*
X58623250Y-34313645D01*
X58931132Y-34166658D01*
X59114455Y-33804644D01*
X59223629Y-33413822D01*
X59254460Y-33009211D01*
X59205763Y-32606359D01*
X59079408Y-32220748D01*
X58931132Y-31943342D01*
X58623250Y-31796355D01*
X57364605Y-33055000D01*
X57005395Y-33055000D01*
X56991253Y-33040858D01*
X57170858Y-32861253D01*
X57185000Y-32875395D01*
X58443645Y-31616750D01*
X58404617Y-31535000D01*
X59979928Y-31535000D01*
X59979928Y-33235000D01*
X59992188Y-33359482D01*
X60028498Y-33479180D01*
X60087463Y-33589494D01*
X60166815Y-33686185D01*
X60263506Y-33765537D01*
X60373820Y-33824502D01*
X60493518Y-33860812D01*
X60618000Y-33873072D01*
X62318000Y-33873072D01*
X62442482Y-33860812D01*
X62562180Y-33824502D01*
X62672494Y-33765537D01*
X62769185Y-33686185D01*
X62848537Y-33589494D01*
X62907502Y-33479180D01*
X62943812Y-33359482D01*
X62956072Y-33235000D01*
X62956072Y-31535000D01*
X62943812Y-31410518D01*
X62907502Y-31290820D01*
X62848537Y-31180506D01*
X62769185Y-31083815D01*
X62672494Y-31004463D01*
X62562180Y-30945498D01*
X62442482Y-30909188D01*
X62318000Y-30896928D01*
X60618000Y-30896928D01*
X60493518Y-30909188D01*
X60373820Y-30945498D01*
X60263506Y-31004463D01*
X60166815Y-31083815D01*
X60087463Y-31180506D01*
X60028498Y-31290820D01*
X59992188Y-31410518D01*
X59979928Y-31535000D01*
X58404617Y-31535000D01*
X58296658Y-31308868D01*
X57934644Y-31125545D01*
X57543822Y-31016371D01*
X57139211Y-30985540D01*
X56736359Y-31034237D01*
X56350748Y-31160592D01*
X56303909Y-31185628D01*
X56374482Y-31015250D01*
X56445000Y-30660732D01*
X56445000Y-30299268D01*
X56374482Y-29944750D01*
X56301607Y-29768814D01*
X56584120Y-29885835D01*
X56982108Y-29965000D01*
X57387892Y-29965000D01*
X57785880Y-29885835D01*
X58160776Y-29730548D01*
X58498173Y-29505106D01*
X58578279Y-29425000D01*
X64551928Y-29425000D01*
X64564188Y-29549482D01*
X64600498Y-29669180D01*
X64659463Y-29779494D01*
X64738815Y-29876185D01*
X64835506Y-29955537D01*
X64945820Y-30014502D01*
X65026466Y-30038966D01*
X64942412Y-30114731D01*
X64768359Y-30348080D01*
X64643175Y-30610901D01*
X64598524Y-30758110D01*
X64719845Y-30988000D01*
X65913000Y-30988000D01*
X65913000Y-28702000D01*
X66167000Y-28702000D01*
X66167000Y-30988000D01*
X67360155Y-30988000D01*
X67481476Y-30758110D01*
X67436825Y-30610901D01*
X67311641Y-30348080D01*
X67137588Y-30114731D01*
X67053534Y-30038966D01*
X67134180Y-30014502D01*
X67244494Y-29955537D01*
X67341185Y-29876185D01*
X67420537Y-29779494D01*
X67479502Y-29669180D01*
X67515812Y-29549482D01*
X67528072Y-29425000D01*
X67525000Y-28860750D01*
X67366250Y-28702000D01*
X66167000Y-28702000D01*
X65913000Y-28702000D01*
X64713750Y-28702000D01*
X64555000Y-28860750D01*
X64551928Y-29425000D01*
X58578279Y-29425000D01*
X58785106Y-29218173D01*
X59010548Y-28880776D01*
X59165835Y-28505880D01*
X59245000Y-28107892D01*
X59245000Y-27725000D01*
X64551928Y-27725000D01*
X64555000Y-28289250D01*
X64713750Y-28448000D01*
X65913000Y-28448000D01*
X65913000Y-27248750D01*
X66167000Y-27248750D01*
X66167000Y-28448000D01*
X67366250Y-28448000D01*
X67525000Y-28289250D01*
X67528072Y-27725000D01*
X67515812Y-27600518D01*
X67479502Y-27480820D01*
X67420537Y-27370506D01*
X67341185Y-27273815D01*
X67244494Y-27194463D01*
X67134180Y-27135498D01*
X67014482Y-27099188D01*
X66890000Y-27086928D01*
X66325750Y-27090000D01*
X66167000Y-27248750D01*
X65913000Y-27248750D01*
X65754250Y-27090000D01*
X65190000Y-27086928D01*
X65065518Y-27099188D01*
X64945820Y-27135498D01*
X64835506Y-27194463D01*
X64738815Y-27273815D01*
X64659463Y-27370506D01*
X64600498Y-27480820D01*
X64564188Y-27600518D01*
X64551928Y-27725000D01*
X59245000Y-27725000D01*
X59245000Y-27702108D01*
X59165835Y-27304120D01*
X59010548Y-26929224D01*
X58785106Y-26591827D01*
X58498173Y-26304894D01*
X58169079Y-26085000D01*
X67026264Y-26085000D01*
X67895000Y-26953737D01*
X67895001Y-78456262D01*
X67026264Y-79325000D01*
X39109546Y-79325000D01*
X39184411Y-79293990D01*
X39427632Y-79131475D01*
X39634475Y-78924632D01*
X39759178Y-78738000D01*
X43572178Y-78738000D01*
X43609500Y-78741676D01*
X43646822Y-78738000D01*
X43646833Y-78738000D01*
X43758486Y-78727003D01*
X43901747Y-78683546D01*
X44033776Y-78612974D01*
X44149501Y-78518001D01*
X44173303Y-78488998D01*
X44267229Y-78395072D01*
X44390000Y-78395072D01*
X44493644Y-78384864D01*
X44558250Y-78392000D01*
X44590497Y-78359753D01*
X44634180Y-78346502D01*
X44740000Y-78289939D01*
X44845820Y-78346502D01*
X44889503Y-78359753D01*
X44921750Y-78392000D01*
X44986356Y-78384864D01*
X45063428Y-78392455D01*
X45105026Y-78470278D01*
X45117110Y-78485002D01*
X45199999Y-78586003D01*
X45229003Y-78609806D01*
X45266195Y-78646998D01*
X45289998Y-78676002D01*
X45405723Y-78770975D01*
X45537752Y-78841547D01*
X45681013Y-78885004D01*
X45792666Y-78896001D01*
X45792677Y-78896001D01*
X45829999Y-78899677D01*
X45867322Y-78896001D01*
X47364678Y-78896001D01*
X47402000Y-78899677D01*
X47439323Y-78896001D01*
X48127677Y-78896001D01*
X48164999Y-78899677D01*
X48202321Y-78896001D01*
X48202332Y-78896001D01*
X48313985Y-78885004D01*
X48457246Y-78841547D01*
X48501865Y-78817697D01*
X48579986Y-78810003D01*
X48723247Y-78766546D01*
X48855276Y-78695974D01*
X48971001Y-78601001D01*
X48994804Y-78571997D01*
X49171729Y-78395072D01*
X49390000Y-78395072D01*
X49490000Y-78385223D01*
X49590000Y-78395072D01*
X49890000Y-78395072D01*
X50014482Y-78382812D01*
X50134180Y-78346502D01*
X50244494Y-78287537D01*
X50341185Y-78208185D01*
X50420537Y-78111494D01*
X50479502Y-78001180D01*
X50515812Y-77881482D01*
X50528072Y-77757000D01*
X50528072Y-77685000D01*
X54074428Y-77685000D01*
X54086688Y-77809482D01*
X54122998Y-77929180D01*
X54181963Y-78039494D01*
X54261315Y-78136185D01*
X54358006Y-78215537D01*
X54468320Y-78274502D01*
X54588018Y-78310812D01*
X54712500Y-78323072D01*
X55276750Y-78320000D01*
X55435500Y-78161250D01*
X55435500Y-76962000D01*
X55689500Y-76962000D01*
X55689500Y-78161250D01*
X55848250Y-78320000D01*
X56412500Y-78323072D01*
X56536982Y-78310812D01*
X56656680Y-78274502D01*
X56766994Y-78215537D01*
X56863685Y-78136185D01*
X56943037Y-78039494D01*
X57002002Y-77929180D01*
X57038312Y-77809482D01*
X57050572Y-77685000D01*
X57047500Y-77120750D01*
X56888750Y-76962000D01*
X55689500Y-76962000D01*
X55435500Y-76962000D01*
X54236250Y-76962000D01*
X54077500Y-77120750D01*
X54074428Y-77685000D01*
X50528072Y-77685000D01*
X50528072Y-77435072D01*
X53020000Y-77435072D01*
X53144482Y-77422812D01*
X53264180Y-77386502D01*
X53374494Y-77327537D01*
X53471185Y-77248185D01*
X53550537Y-77151494D01*
X53609502Y-77041180D01*
X53645812Y-76921482D01*
X53658072Y-76797000D01*
X53658072Y-75985000D01*
X54074428Y-75985000D01*
X54077500Y-76549250D01*
X54236250Y-76708000D01*
X55435500Y-76708000D01*
X55435500Y-75508750D01*
X55689500Y-75508750D01*
X55689500Y-76708000D01*
X56888750Y-76708000D01*
X57047500Y-76549250D01*
X57050572Y-75985000D01*
X57050067Y-75979872D01*
X58598000Y-75979872D01*
X58598000Y-76420128D01*
X58683890Y-76851925D01*
X58852369Y-77258669D01*
X59096962Y-77624729D01*
X59408271Y-77936038D01*
X59774331Y-78180631D01*
X60181075Y-78349110D01*
X60612872Y-78435000D01*
X61053128Y-78435000D01*
X61484925Y-78349110D01*
X61891669Y-78180631D01*
X62257729Y-77936038D01*
X62569038Y-77624729D01*
X62813631Y-77258669D01*
X62982110Y-76851925D01*
X63068000Y-76420128D01*
X63068000Y-75979872D01*
X62982110Y-75548075D01*
X62813631Y-75141331D01*
X62569038Y-74775271D01*
X62257729Y-74463962D01*
X61891669Y-74219369D01*
X61484925Y-74050890D01*
X61053128Y-73965000D01*
X60612872Y-73965000D01*
X60181075Y-74050890D01*
X59774331Y-74219369D01*
X59408271Y-74463962D01*
X59096962Y-74775271D01*
X58852369Y-75141331D01*
X58683890Y-75548075D01*
X58598000Y-75979872D01*
X57050067Y-75979872D01*
X57038312Y-75860518D01*
X57002002Y-75740820D01*
X56943037Y-75630506D01*
X56863685Y-75533815D01*
X56766994Y-75454463D01*
X56656680Y-75395498D01*
X56536982Y-75359188D01*
X56412500Y-75346928D01*
X55848250Y-75350000D01*
X55689500Y-75508750D01*
X55435500Y-75508750D01*
X55276750Y-75350000D01*
X54712500Y-75346928D01*
X54588018Y-75359188D01*
X54468320Y-75395498D01*
X54358006Y-75454463D01*
X54261315Y-75533815D01*
X54181963Y-75630506D01*
X54122998Y-75740820D01*
X54086688Y-75860518D01*
X54074428Y-75985000D01*
X53658072Y-75985000D01*
X53658072Y-73797000D01*
X53645812Y-73672518D01*
X53609502Y-73552820D01*
X53550537Y-73442506D01*
X53471185Y-73345815D01*
X53374494Y-73266463D01*
X53264180Y-73207498D01*
X53144482Y-73171188D01*
X53020000Y-73158928D01*
X50851873Y-73158928D01*
X51220802Y-72790000D01*
X51282939Y-72790000D01*
X51482898Y-72750226D01*
X51671256Y-72672205D01*
X51840774Y-72558937D01*
X51984937Y-72414774D01*
X52098205Y-72245256D01*
X52176226Y-72056898D01*
X52216000Y-71856939D01*
X52216000Y-71653061D01*
X52176226Y-71453102D01*
X52098205Y-71264744D01*
X51984937Y-71095226D01*
X51840774Y-70951063D01*
X51671256Y-70837795D01*
X51482898Y-70759774D01*
X51282939Y-70720000D01*
X51079061Y-70720000D01*
X50917999Y-70752037D01*
X50917999Y-69508000D01*
X57566928Y-69508000D01*
X57566928Y-71208000D01*
X57579188Y-71332482D01*
X57615498Y-71452180D01*
X57674463Y-71562494D01*
X57753815Y-71659185D01*
X57850506Y-71738537D01*
X57960820Y-71797502D01*
X58080518Y-71833812D01*
X58205000Y-71846072D01*
X59905000Y-71846072D01*
X60029482Y-71833812D01*
X60149180Y-71797502D01*
X60259494Y-71738537D01*
X60356185Y-71659185D01*
X60435537Y-71562494D01*
X60494502Y-71452180D01*
X60530812Y-71332482D01*
X60543072Y-71208000D01*
X60543072Y-69508000D01*
X60530812Y-69383518D01*
X60494502Y-69263820D01*
X60435537Y-69153506D01*
X60356185Y-69056815D01*
X60259494Y-68977463D01*
X60149180Y-68918498D01*
X60029482Y-68882188D01*
X59905000Y-68869928D01*
X58205000Y-68869928D01*
X58080518Y-68882188D01*
X57960820Y-68918498D01*
X57850506Y-68977463D01*
X57753815Y-69056815D01*
X57674463Y-69153506D01*
X57615498Y-69263820D01*
X57579188Y-69383518D01*
X57566928Y-69508000D01*
X50917999Y-69508000D01*
X50917999Y-65181321D01*
X50921675Y-65143998D01*
X50917999Y-65106676D01*
X50917999Y-65106666D01*
X50907002Y-64995013D01*
X50863545Y-64851752D01*
X50793000Y-64719774D01*
X50793000Y-64642061D01*
X50753226Y-64442102D01*
X50675205Y-64253744D01*
X50599443Y-64140358D01*
X51882503Y-62857299D01*
X51911501Y-62833501D01*
X52006474Y-62717776D01*
X52077046Y-62585747D01*
X52120503Y-62442486D01*
X52131500Y-62330833D01*
X52135177Y-62293500D01*
X52131500Y-62256167D01*
X52131500Y-62219509D01*
X52155063Y-62254774D01*
X52299226Y-62398937D01*
X52468744Y-62512205D01*
X52657102Y-62590226D01*
X52857061Y-62630000D01*
X53060939Y-62630000D01*
X53260898Y-62590226D01*
X53449256Y-62512205D01*
X53618774Y-62398937D01*
X53662711Y-62355000D01*
X59113289Y-62355000D01*
X59157226Y-62398937D01*
X59326744Y-62512205D01*
X59515102Y-62590226D01*
X59715061Y-62630000D01*
X59918939Y-62630000D01*
X60118898Y-62590226D01*
X60307256Y-62512205D01*
X60476774Y-62398937D01*
X60620937Y-62254774D01*
X60734205Y-62085256D01*
X60812226Y-61896898D01*
X60852000Y-61696939D01*
X60852000Y-61493061D01*
X60812226Y-61293102D01*
X60734205Y-61104744D01*
X60620937Y-60935226D01*
X60476774Y-60791063D01*
X60307256Y-60677795D01*
X60118898Y-60599774D01*
X59918939Y-60560000D01*
X59715061Y-60560000D01*
X59515102Y-60599774D01*
X59326744Y-60677795D01*
X59157226Y-60791063D01*
X59113289Y-60835000D01*
X53662711Y-60835000D01*
X53618774Y-60791063D01*
X53449256Y-60677795D01*
X53260898Y-60599774D01*
X53060939Y-60560000D01*
X52857061Y-60560000D01*
X52657102Y-60599774D01*
X52468744Y-60677795D01*
X52299226Y-60791063D01*
X52155063Y-60935226D01*
X52131500Y-60970491D01*
X52131500Y-59242801D01*
X52194302Y-59180000D01*
X60351178Y-59180000D01*
X60388500Y-59183676D01*
X60425822Y-59180000D01*
X60425833Y-59180000D01*
X60537486Y-59169003D01*
X60680747Y-59125546D01*
X60812776Y-59054974D01*
X60928501Y-58960001D01*
X60952304Y-58930997D01*
X61283729Y-58599572D01*
X62058500Y-58599572D01*
X62231754Y-58582508D01*
X62398350Y-58531972D01*
X62551886Y-58449905D01*
X62686462Y-58339462D01*
X62796905Y-58204886D01*
X62878972Y-58051350D01*
X62929508Y-57884754D01*
X62946572Y-57711500D01*
X62946572Y-56461500D01*
X62929508Y-56288246D01*
X62878972Y-56121650D01*
X62796905Y-55968114D01*
X62686462Y-55833538D01*
X62551886Y-55723095D01*
X62398350Y-55641028D01*
X62343500Y-55624390D01*
X62343500Y-54965202D01*
X62476886Y-54893905D01*
X62611462Y-54783462D01*
X62721905Y-54648886D01*
X62803972Y-54495350D01*
X62854508Y-54328754D01*
X62871572Y-54155500D01*
X62871572Y-52905500D01*
X62854508Y-52732246D01*
X62803972Y-52565650D01*
X62721905Y-52412114D01*
X62611462Y-52277538D01*
X62476886Y-52167095D01*
X62323350Y-52085028D01*
X62156754Y-52034492D01*
X61983500Y-52017428D01*
X61183500Y-52017428D01*
X61010246Y-52034492D01*
X60843650Y-52085028D01*
X60704000Y-52159673D01*
X60704000Y-45145801D01*
X64555000Y-41294802D01*
X64555000Y-41421260D01*
X64612068Y-41708158D01*
X64724010Y-41978411D01*
X64886525Y-42221632D01*
X65093368Y-42428475D01*
X65267760Y-42545000D01*
X65093368Y-42661525D01*
X64886525Y-42868368D01*
X64724010Y-43111589D01*
X64612068Y-43381842D01*
X64555000Y-43668740D01*
X64555000Y-43961260D01*
X64612068Y-44248158D01*
X64724010Y-44518411D01*
X64886525Y-44761632D01*
X65093368Y-44968475D01*
X65267760Y-45085000D01*
X65093368Y-45201525D01*
X64886525Y-45408368D01*
X64724010Y-45651589D01*
X64612068Y-45921842D01*
X64555000Y-46208740D01*
X64555000Y-46501260D01*
X64612068Y-46788158D01*
X64724010Y-47058411D01*
X64886525Y-47301632D01*
X65093368Y-47508475D01*
X65267760Y-47625000D01*
X65093368Y-47741525D01*
X64886525Y-47948368D01*
X64724010Y-48191589D01*
X64612068Y-48461842D01*
X64555000Y-48748740D01*
X64555000Y-49041260D01*
X64612068Y-49328158D01*
X64724010Y-49598411D01*
X64886525Y-49841632D01*
X65093368Y-50048475D01*
X65267760Y-50165000D01*
X65093368Y-50281525D01*
X64886525Y-50488368D01*
X64724010Y-50731589D01*
X64612068Y-51001842D01*
X64555000Y-51288740D01*
X64555000Y-51581260D01*
X64612068Y-51868158D01*
X64724010Y-52138411D01*
X64886525Y-52381632D01*
X65093368Y-52588475D01*
X65267760Y-52705000D01*
X65093368Y-52821525D01*
X64886525Y-53028368D01*
X64724010Y-53271589D01*
X64612068Y-53541842D01*
X64555000Y-53828740D01*
X64555000Y-54121260D01*
X64612068Y-54408158D01*
X64724010Y-54678411D01*
X64886525Y-54921632D01*
X65093368Y-55128475D01*
X65267760Y-55245000D01*
X65093368Y-55361525D01*
X64886525Y-55568368D01*
X64724010Y-55811589D01*
X64612068Y-56081842D01*
X64555000Y-56368740D01*
X64555000Y-56661260D01*
X64612068Y-56948158D01*
X64724010Y-57218411D01*
X64886525Y-57461632D01*
X65093368Y-57668475D01*
X65267760Y-57785000D01*
X65093368Y-57901525D01*
X64886525Y-58108368D01*
X64724010Y-58351589D01*
X64612068Y-58621842D01*
X64555000Y-58908740D01*
X64555000Y-59201260D01*
X64612068Y-59488158D01*
X64724010Y-59758411D01*
X64886525Y-60001632D01*
X65093368Y-60208475D01*
X65267760Y-60325000D01*
X65093368Y-60441525D01*
X64886525Y-60648368D01*
X64724010Y-60891589D01*
X64612068Y-61161842D01*
X64555000Y-61448740D01*
X64555000Y-61741260D01*
X64612068Y-62028158D01*
X64724010Y-62298411D01*
X64886525Y-62541632D01*
X65093368Y-62748475D01*
X65267760Y-62865000D01*
X65093368Y-62981525D01*
X64886525Y-63188368D01*
X64724010Y-63431589D01*
X64612068Y-63701842D01*
X64555000Y-63988740D01*
X64555000Y-64281260D01*
X64612068Y-64568158D01*
X64724010Y-64838411D01*
X64886525Y-65081632D01*
X65093368Y-65288475D01*
X65267760Y-65405000D01*
X65093368Y-65521525D01*
X64886525Y-65728368D01*
X64724010Y-65971589D01*
X64612068Y-66241842D01*
X64555000Y-66528740D01*
X64555000Y-66821260D01*
X64612068Y-67108158D01*
X64724010Y-67378411D01*
X64886525Y-67621632D01*
X65093368Y-67828475D01*
X65267760Y-67945000D01*
X65093368Y-68061525D01*
X64886525Y-68268368D01*
X64724010Y-68511589D01*
X64612068Y-68781842D01*
X64555000Y-69068740D01*
X64555000Y-69361260D01*
X64612068Y-69648158D01*
X64724010Y-69918411D01*
X64886525Y-70161632D01*
X65093368Y-70368475D01*
X65267760Y-70485000D01*
X65093368Y-70601525D01*
X64886525Y-70808368D01*
X64724010Y-71051589D01*
X64612068Y-71321842D01*
X64555000Y-71608740D01*
X64555000Y-71901260D01*
X64612068Y-72188158D01*
X64724010Y-72458411D01*
X64886525Y-72701632D01*
X65093368Y-72908475D01*
X65267760Y-73025000D01*
X65093368Y-73141525D01*
X64886525Y-73348368D01*
X64724010Y-73591589D01*
X64612068Y-73861842D01*
X64555000Y-74148740D01*
X64555000Y-74441260D01*
X64612068Y-74728158D01*
X64724010Y-74998411D01*
X64886525Y-75241632D01*
X65093368Y-75448475D01*
X65267760Y-75565000D01*
X65093368Y-75681525D01*
X64886525Y-75888368D01*
X64724010Y-76131589D01*
X64612068Y-76401842D01*
X64555000Y-76688740D01*
X64555000Y-76981260D01*
X64612068Y-77268158D01*
X64724010Y-77538411D01*
X64886525Y-77781632D01*
X65093368Y-77988475D01*
X65336589Y-78150990D01*
X65606842Y-78262932D01*
X65893740Y-78320000D01*
X66186260Y-78320000D01*
X66473158Y-78262932D01*
X66743411Y-78150990D01*
X66986632Y-77988475D01*
X67193475Y-77781632D01*
X67355990Y-77538411D01*
X67467932Y-77268158D01*
X67525000Y-76981260D01*
X67525000Y-76688740D01*
X67467932Y-76401842D01*
X67355990Y-76131589D01*
X67193475Y-75888368D01*
X66986632Y-75681525D01*
X66812240Y-75565000D01*
X66986632Y-75448475D01*
X67193475Y-75241632D01*
X67355990Y-74998411D01*
X67467932Y-74728158D01*
X67525000Y-74441260D01*
X67525000Y-74148740D01*
X67467932Y-73861842D01*
X67355990Y-73591589D01*
X67193475Y-73348368D01*
X66986632Y-73141525D01*
X66812240Y-73025000D01*
X66986632Y-72908475D01*
X67193475Y-72701632D01*
X67355990Y-72458411D01*
X67467932Y-72188158D01*
X67525000Y-71901260D01*
X67525000Y-71608740D01*
X67467932Y-71321842D01*
X67355990Y-71051589D01*
X67193475Y-70808368D01*
X66986632Y-70601525D01*
X66812240Y-70485000D01*
X66986632Y-70368475D01*
X67193475Y-70161632D01*
X67355990Y-69918411D01*
X67467932Y-69648158D01*
X67525000Y-69361260D01*
X67525000Y-69068740D01*
X67467932Y-68781842D01*
X67355990Y-68511589D01*
X67193475Y-68268368D01*
X66986632Y-68061525D01*
X66812240Y-67945000D01*
X66986632Y-67828475D01*
X67193475Y-67621632D01*
X67355990Y-67378411D01*
X67467932Y-67108158D01*
X67525000Y-66821260D01*
X67525000Y-66528740D01*
X67467932Y-66241842D01*
X67355990Y-65971589D01*
X67193475Y-65728368D01*
X66986632Y-65521525D01*
X66812240Y-65405000D01*
X66986632Y-65288475D01*
X67193475Y-65081632D01*
X67355990Y-64838411D01*
X67467932Y-64568158D01*
X67525000Y-64281260D01*
X67525000Y-63988740D01*
X67467932Y-63701842D01*
X67355990Y-63431589D01*
X67193475Y-63188368D01*
X66986632Y-62981525D01*
X66812240Y-62865000D01*
X66986632Y-62748475D01*
X67193475Y-62541632D01*
X67355990Y-62298411D01*
X67467932Y-62028158D01*
X67525000Y-61741260D01*
X67525000Y-61448740D01*
X67467932Y-61161842D01*
X67355990Y-60891589D01*
X67193475Y-60648368D01*
X66986632Y-60441525D01*
X66812240Y-60325000D01*
X66986632Y-60208475D01*
X67193475Y-60001632D01*
X67355990Y-59758411D01*
X67467932Y-59488158D01*
X67525000Y-59201260D01*
X67525000Y-58908740D01*
X67467932Y-58621842D01*
X67355990Y-58351589D01*
X67193475Y-58108368D01*
X66986632Y-57901525D01*
X66812240Y-57785000D01*
X66986632Y-57668475D01*
X67193475Y-57461632D01*
X67355990Y-57218411D01*
X67467932Y-56948158D01*
X67525000Y-56661260D01*
X67525000Y-56368740D01*
X67467932Y-56081842D01*
X67355990Y-55811589D01*
X67193475Y-55568368D01*
X66986632Y-55361525D01*
X66812240Y-55245000D01*
X66986632Y-55128475D01*
X67193475Y-54921632D01*
X67355990Y-54678411D01*
X67467932Y-54408158D01*
X67525000Y-54121260D01*
X67525000Y-53828740D01*
X67467932Y-53541842D01*
X67355990Y-53271589D01*
X67193475Y-53028368D01*
X66986632Y-52821525D01*
X66812240Y-52705000D01*
X66986632Y-52588475D01*
X67193475Y-52381632D01*
X67355990Y-52138411D01*
X67467932Y-51868158D01*
X67525000Y-51581260D01*
X67525000Y-51288740D01*
X67467932Y-51001842D01*
X67355990Y-50731589D01*
X67193475Y-50488368D01*
X66986632Y-50281525D01*
X66812240Y-50165000D01*
X66986632Y-50048475D01*
X67193475Y-49841632D01*
X67355990Y-49598411D01*
X67467932Y-49328158D01*
X67525000Y-49041260D01*
X67525000Y-48748740D01*
X67467932Y-48461842D01*
X67355990Y-48191589D01*
X67193475Y-47948368D01*
X66986632Y-47741525D01*
X66812240Y-47625000D01*
X66986632Y-47508475D01*
X67193475Y-47301632D01*
X67355990Y-47058411D01*
X67467932Y-46788158D01*
X67525000Y-46501260D01*
X67525000Y-46208740D01*
X67467932Y-45921842D01*
X67355990Y-45651589D01*
X67193475Y-45408368D01*
X66986632Y-45201525D01*
X66812240Y-45085000D01*
X66986632Y-44968475D01*
X67193475Y-44761632D01*
X67355990Y-44518411D01*
X67467932Y-44248158D01*
X67525000Y-43961260D01*
X67525000Y-43668740D01*
X67467932Y-43381842D01*
X67355990Y-43111589D01*
X67193475Y-42868368D01*
X66986632Y-42661525D01*
X66812240Y-42545000D01*
X66986632Y-42428475D01*
X67193475Y-42221632D01*
X67355990Y-41978411D01*
X67467932Y-41708158D01*
X67525000Y-41421260D01*
X67525000Y-41128740D01*
X67467932Y-40841842D01*
X67355990Y-40571589D01*
X67193475Y-40328368D01*
X66986632Y-40121525D01*
X66812240Y-40005000D01*
X66986632Y-39888475D01*
X67193475Y-39681632D01*
X67355990Y-39438411D01*
X67467932Y-39168158D01*
X67525000Y-38881260D01*
X67525000Y-38588740D01*
X67467932Y-38301842D01*
X67355990Y-38031589D01*
X67193475Y-37788368D01*
X66986632Y-37581525D01*
X66812240Y-37465000D01*
X66986632Y-37348475D01*
X67193475Y-37141632D01*
X67355990Y-36898411D01*
X67467932Y-36628158D01*
X67525000Y-36341260D01*
X67525000Y-36048740D01*
X67467932Y-35761842D01*
X67355990Y-35491589D01*
X67193475Y-35248368D01*
X66986632Y-35041525D01*
X66812240Y-34925000D01*
X66986632Y-34808475D01*
X67193475Y-34601632D01*
X67355990Y-34358411D01*
X67467932Y-34088158D01*
X67525000Y-33801260D01*
X67525000Y-33508740D01*
X67467932Y-33221842D01*
X67355990Y-32951589D01*
X67193475Y-32708368D01*
X66986632Y-32501525D01*
X66804466Y-32379805D01*
X66921355Y-32310178D01*
X67137588Y-32115269D01*
X67311641Y-31881920D01*
X67436825Y-31619099D01*
X67481476Y-31471890D01*
X67360155Y-31242000D01*
X66167000Y-31242000D01*
X66167000Y-31262000D01*
X65913000Y-31262000D01*
X65913000Y-31242000D01*
X64719845Y-31242000D01*
X64598524Y-31471890D01*
X64643175Y-31619099D01*
X64768359Y-31881920D01*
X64942412Y-32115269D01*
X65158645Y-32310178D01*
X65275534Y-32379805D01*
X65093368Y-32501525D01*
X64886525Y-32708368D01*
X64724010Y-32951589D01*
X64612068Y-33221842D01*
X64555000Y-33508740D01*
X64555000Y-33801260D01*
X64612068Y-34088158D01*
X64724010Y-34358411D01*
X64886525Y-34601632D01*
X65093368Y-34808475D01*
X65267760Y-34925000D01*
X65093368Y-35041525D01*
X64886525Y-35248368D01*
X64724010Y-35491589D01*
X64612068Y-35761842D01*
X64555000Y-36048740D01*
X64555000Y-36341260D01*
X64598790Y-36561408D01*
X58671003Y-42489196D01*
X58641999Y-42512999D01*
X58586871Y-42580174D01*
X58547026Y-42628724D01*
X58507361Y-42702932D01*
X58476454Y-42760754D01*
X58432997Y-42904015D01*
X58422000Y-43015668D01*
X58422000Y-43015678D01*
X58418324Y-43053000D01*
X58422000Y-43090322D01*
X58422001Y-52017428D01*
X58083500Y-52017428D01*
X57910246Y-52034492D01*
X57743650Y-52085028D01*
X57590114Y-52167095D01*
X57455538Y-52277538D01*
X57345095Y-52412114D01*
X57263028Y-52565650D01*
X57212492Y-52732246D01*
X57195428Y-52905500D01*
X57195428Y-54155500D01*
X57212492Y-54328754D01*
X57263028Y-54495350D01*
X57345095Y-54648886D01*
X57442105Y-54767094D01*
X56581199Y-55628000D01*
X50710322Y-55628000D01*
X50672999Y-55624324D01*
X50635676Y-55628000D01*
X50635667Y-55628000D01*
X50524014Y-55638997D01*
X50380753Y-55682454D01*
X50248724Y-55753026D01*
X50132999Y-55847999D01*
X50109201Y-55876997D01*
X48891998Y-57094201D01*
X48863000Y-57117999D01*
X48839202Y-57146997D01*
X48839201Y-57146998D01*
X48768026Y-57233724D01*
X48697454Y-57365754D01*
X48674251Y-57442247D01*
X48653998Y-57509014D01*
X48653824Y-57510777D01*
X48639324Y-57658000D01*
X48643001Y-57695332D01*
X48643000Y-61216697D01*
X46033733Y-63825966D01*
X45930724Y-63881026D01*
X45928319Y-63883000D01*
X45852211Y-63883000D01*
X45808274Y-63839063D01*
X45638756Y-63725795D01*
X45450398Y-63647774D01*
X45250439Y-63608000D01*
X45046561Y-63608000D01*
X44846602Y-63647774D01*
X44658244Y-63725795D01*
X44488726Y-63839063D01*
X44344563Y-63983226D01*
X44231295Y-64152744D01*
X44153274Y-64341102D01*
X44113500Y-64541061D01*
X44113500Y-64744939D01*
X44153274Y-64944898D01*
X44231295Y-65133256D01*
X44344563Y-65302774D01*
X44488726Y-65446937D01*
X44658244Y-65560205D01*
X44846602Y-65638226D01*
X45046561Y-65678000D01*
X45250439Y-65678000D01*
X45450398Y-65638226D01*
X45573992Y-65587031D01*
X45573992Y-65633939D01*
X45613766Y-65833898D01*
X45691787Y-66022256D01*
X45805055Y-66191774D01*
X45949218Y-66335937D01*
X46118736Y-66449205D01*
X46307094Y-66527226D01*
X46507053Y-66567000D01*
X46710931Y-66567000D01*
X46910890Y-66527226D01*
X47099248Y-66449205D01*
X47268766Y-66335937D01*
X47412929Y-66191774D01*
X47526197Y-66022256D01*
X47604218Y-65833898D01*
X47612118Y-65794183D01*
X48723000Y-64683301D01*
X48723000Y-64845939D01*
X48762774Y-65045898D01*
X48840795Y-65234256D01*
X48954063Y-65403774D01*
X49098226Y-65547937D01*
X49267744Y-65661205D01*
X49397999Y-65715159D01*
X49398000Y-70524496D01*
X49277217Y-70500471D01*
X49073339Y-70500471D01*
X48873380Y-70540245D01*
X48685022Y-70618266D01*
X48515504Y-70731534D01*
X48471567Y-70775471D01*
X47155271Y-70775471D01*
X45944755Y-69564956D01*
X46015937Y-69493774D01*
X46129205Y-69324256D01*
X46207226Y-69135898D01*
X46247000Y-68935939D01*
X46247000Y-68732061D01*
X46207226Y-68532102D01*
X46129205Y-68343744D01*
X46015937Y-68174226D01*
X45871774Y-68030063D01*
X45702256Y-67916795D01*
X45513898Y-67838774D01*
X45313939Y-67799000D01*
X45251801Y-67799000D01*
X45013803Y-67561002D01*
X44990001Y-67531999D01*
X44874276Y-67437026D01*
X44742247Y-67366454D01*
X44598986Y-67322997D01*
X44487333Y-67312000D01*
X44487322Y-67312000D01*
X44450000Y-67308324D01*
X44412678Y-67312000D01*
X43748802Y-67312000D01*
X32314801Y-55878000D01*
X34399315Y-55878000D01*
X34502063Y-56031774D01*
X34646226Y-56175937D01*
X34815744Y-56289205D01*
X35004102Y-56367226D01*
X35204061Y-56407000D01*
X35407939Y-56407000D01*
X35607898Y-56367226D01*
X35796256Y-56289205D01*
X35965774Y-56175937D01*
X36109937Y-56031774D01*
X36223205Y-55862256D01*
X36301226Y-55673898D01*
X36341000Y-55473939D01*
X36341000Y-55270061D01*
X36301226Y-55070102D01*
X36223205Y-54881744D01*
X36109937Y-54712226D01*
X35965774Y-54568063D01*
X35796256Y-54454795D01*
X35607898Y-54376774D01*
X35407939Y-54337000D01*
X35204061Y-54337000D01*
X35095455Y-54358603D01*
X35089333Y-54358000D01*
X35089322Y-54358000D01*
X35052000Y-54354324D01*
X35014678Y-54358000D01*
X33547000Y-54358000D01*
X33547000Y-54254061D01*
X33507226Y-54054102D01*
X33429205Y-53865744D01*
X33315937Y-53696226D01*
X33171774Y-53552063D01*
X33002256Y-53438795D01*
X32813898Y-53360774D01*
X32613939Y-53321000D01*
X32551802Y-53321000D01*
X30478000Y-51247199D01*
X30478000Y-50710325D01*
X30481676Y-50673000D01*
X30478000Y-50635675D01*
X30478000Y-50635667D01*
X30467003Y-50524014D01*
X30423546Y-50380753D01*
X30352974Y-50248724D01*
X30258001Y-50132999D01*
X30229004Y-50109202D01*
X29381210Y-49261408D01*
X29425000Y-49041260D01*
X29425000Y-48748740D01*
X29367932Y-48461842D01*
X29255990Y-48191589D01*
X29093475Y-47948368D01*
X28886632Y-47741525D01*
X28712240Y-47625000D01*
X28886632Y-47508475D01*
X29093475Y-47301632D01*
X29200096Y-47142061D01*
X46717000Y-47142061D01*
X46717000Y-47345939D01*
X46756774Y-47545898D01*
X46834795Y-47734256D01*
X46948063Y-47903774D01*
X47092226Y-48047937D01*
X47261744Y-48161205D01*
X47450102Y-48239226D01*
X47650061Y-48279000D01*
X47853939Y-48279000D01*
X48053898Y-48239226D01*
X48242256Y-48161205D01*
X48411774Y-48047937D01*
X48555937Y-47903774D01*
X48669205Y-47734256D01*
X48747226Y-47545898D01*
X48787000Y-47345939D01*
X48787000Y-47142061D01*
X48747226Y-46942102D01*
X48669205Y-46753744D01*
X48637000Y-46705546D01*
X48637000Y-46590409D01*
X48647183Y-46602817D01*
X48680951Y-46630530D01*
X48680953Y-46630532D01*
X48781940Y-46713410D01*
X48781941Y-46713411D01*
X48935687Y-46795589D01*
X49102510Y-46846195D01*
X49232523Y-46859000D01*
X49232531Y-46859000D01*
X49276000Y-46863281D01*
X49319469Y-46859000D01*
X49753546Y-46859000D01*
X49801744Y-46891205D01*
X49990102Y-46969226D01*
X50190061Y-47009000D01*
X50393939Y-47009000D01*
X50593898Y-46969226D01*
X50782256Y-46891205D01*
X50951774Y-46777937D01*
X51095937Y-46633774D01*
X51209205Y-46464256D01*
X51287226Y-46275898D01*
X51327000Y-46075939D01*
X51327000Y-45872061D01*
X51287226Y-45672102D01*
X51209205Y-45483744D01*
X51095937Y-45314226D01*
X50951774Y-45170063D01*
X50782256Y-45056795D01*
X50593898Y-44978774D01*
X50393939Y-44939000D01*
X50190061Y-44939000D01*
X49990102Y-44978774D01*
X49801744Y-45056795D01*
X49753546Y-45089000D01*
X49642579Y-45089000D01*
X49399000Y-44845422D01*
X49399000Y-41686454D01*
X49431205Y-41638256D01*
X49509226Y-41449898D01*
X49549000Y-41249939D01*
X49549000Y-41046061D01*
X49509226Y-40846102D01*
X49431205Y-40657744D01*
X49317937Y-40488226D01*
X49173774Y-40344063D01*
X49004256Y-40230795D01*
X48815898Y-40152774D01*
X48615939Y-40113000D01*
X48412061Y-40113000D01*
X48212102Y-40152774D01*
X48023744Y-40230795D01*
X47854226Y-40344063D01*
X47710063Y-40488226D01*
X47596795Y-40657744D01*
X47518774Y-40846102D01*
X47479000Y-41046061D01*
X47479000Y-41249939D01*
X47518774Y-41449898D01*
X47596795Y-41638256D01*
X47629000Y-41686455D01*
X47629001Y-44845420D01*
X47156956Y-45317466D01*
X47123183Y-45345183D01*
X47012589Y-45479942D01*
X46930411Y-45633688D01*
X46879805Y-45800511D01*
X46867000Y-45930524D01*
X46867000Y-45930531D01*
X46862719Y-45974000D01*
X46867000Y-46017470D01*
X46867001Y-46705545D01*
X46834795Y-46753744D01*
X46756774Y-46942102D01*
X46717000Y-47142061D01*
X29200096Y-47142061D01*
X29255990Y-47058411D01*
X29367932Y-46788158D01*
X29425000Y-46501260D01*
X29425000Y-46208740D01*
X29367932Y-45921842D01*
X29255990Y-45651589D01*
X29093475Y-45408368D01*
X28886632Y-45201525D01*
X28712240Y-45085000D01*
X28886632Y-44968475D01*
X29093475Y-44761632D01*
X29255990Y-44518411D01*
X29367932Y-44248158D01*
X29425000Y-43961260D01*
X29425000Y-43668740D01*
X29367932Y-43381842D01*
X29255990Y-43111589D01*
X29093475Y-42868368D01*
X28886632Y-42661525D01*
X28712240Y-42545000D01*
X28886632Y-42428475D01*
X29093475Y-42221632D01*
X29255990Y-41978411D01*
X29367932Y-41708158D01*
X29425000Y-41421260D01*
X29425000Y-41128740D01*
X29367932Y-40841842D01*
X29255990Y-40571589D01*
X29093475Y-40328368D01*
X28886632Y-40121525D01*
X28712240Y-40005000D01*
X28886632Y-39888475D01*
X29093475Y-39681632D01*
X29255990Y-39438411D01*
X29367932Y-39168158D01*
X29425000Y-38881260D01*
X29425000Y-38760061D01*
X43161000Y-38760061D01*
X43161000Y-38963939D01*
X43200774Y-39163898D01*
X43278795Y-39352256D01*
X43392063Y-39521774D01*
X43536226Y-39665937D01*
X43705744Y-39779205D01*
X43894102Y-39857226D01*
X43950956Y-39868535D01*
X44301470Y-40219049D01*
X44329183Y-40252817D01*
X44362951Y-40280530D01*
X44362953Y-40280532D01*
X44463941Y-40363411D01*
X44617687Y-40445589D01*
X44784510Y-40496195D01*
X44914523Y-40509000D01*
X44914531Y-40509000D01*
X44958000Y-40513281D01*
X45001469Y-40509000D01*
X46197546Y-40509000D01*
X46245744Y-40541205D01*
X46434102Y-40619226D01*
X46634061Y-40659000D01*
X46837939Y-40659000D01*
X47037898Y-40619226D01*
X47226256Y-40541205D01*
X47395774Y-40427937D01*
X47539937Y-40283774D01*
X47653205Y-40114256D01*
X47731226Y-39925898D01*
X47771000Y-39725939D01*
X47771000Y-39522061D01*
X47731226Y-39322102D01*
X47653205Y-39133744D01*
X47539937Y-38964226D01*
X47395774Y-38820063D01*
X47226256Y-38706795D01*
X47037898Y-38628774D01*
X46837939Y-38589000D01*
X46634061Y-38589000D01*
X46434102Y-38628774D01*
X46245744Y-38706795D01*
X46197546Y-38739000D01*
X45324579Y-38739000D01*
X45202535Y-38616956D01*
X45191226Y-38560102D01*
X45113205Y-38371744D01*
X44999937Y-38202226D01*
X44855774Y-38058063D01*
X44686256Y-37944795D01*
X44497898Y-37866774D01*
X44297939Y-37827000D01*
X44094061Y-37827000D01*
X43894102Y-37866774D01*
X43705744Y-37944795D01*
X43536226Y-38058063D01*
X43392063Y-38202226D01*
X43278795Y-38371744D01*
X43200774Y-38560102D01*
X43161000Y-38760061D01*
X29425000Y-38760061D01*
X29425000Y-38588740D01*
X29367932Y-38301842D01*
X29255990Y-38031589D01*
X29093475Y-37788368D01*
X28886632Y-37581525D01*
X28712240Y-37465000D01*
X28886632Y-37348475D01*
X29093475Y-37141632D01*
X29255990Y-36898411D01*
X29367932Y-36628158D01*
X29425000Y-36341260D01*
X29425000Y-36048740D01*
X29367932Y-35761842D01*
X29255990Y-35491589D01*
X29093475Y-35248368D01*
X28886632Y-35041525D01*
X28712240Y-34925000D01*
X28886632Y-34808475D01*
X29093475Y-34601632D01*
X29255990Y-34358411D01*
X29367932Y-34088158D01*
X29425000Y-33801260D01*
X29425000Y-33508740D01*
X29367932Y-33221842D01*
X29255990Y-32951589D01*
X29093475Y-32708368D01*
X28886632Y-32501525D01*
X28704466Y-32379805D01*
X28821355Y-32310178D01*
X29037588Y-32115269D01*
X29211641Y-31881920D01*
X29336825Y-31619099D01*
X29381476Y-31471890D01*
X29260155Y-31242000D01*
X28067000Y-31242000D01*
X28067000Y-31262000D01*
X27813000Y-31262000D01*
X27813000Y-31242000D01*
X26619845Y-31242000D01*
X26498524Y-31471890D01*
X26543175Y-31619099D01*
X26668359Y-31881920D01*
X26842412Y-32115269D01*
X27058645Y-32310178D01*
X27175534Y-32379805D01*
X26993368Y-32501525D01*
X26786525Y-32708368D01*
X26624010Y-32951589D01*
X26512068Y-33221842D01*
X26455000Y-33508740D01*
X26455000Y-33801260D01*
X26512068Y-34088158D01*
X26624010Y-34358411D01*
X26786525Y-34601632D01*
X26993368Y-34808475D01*
X27167760Y-34925000D01*
X26993368Y-35041525D01*
X26786525Y-35248368D01*
X26624010Y-35491589D01*
X26512068Y-35761842D01*
X26455000Y-36048740D01*
X26455000Y-36341260D01*
X26512068Y-36628158D01*
X26624010Y-36898411D01*
X26786525Y-37141632D01*
X26993368Y-37348475D01*
X27167760Y-37465000D01*
X26993368Y-37581525D01*
X26786525Y-37788368D01*
X26624010Y-38031589D01*
X26512068Y-38301842D01*
X26455000Y-38588740D01*
X26455000Y-38881260D01*
X26512068Y-39168158D01*
X26624010Y-39438411D01*
X26786525Y-39681632D01*
X26993368Y-39888475D01*
X27167760Y-40005000D01*
X26993368Y-40121525D01*
X26786525Y-40328368D01*
X26624010Y-40571589D01*
X26512068Y-40841842D01*
X26455000Y-41128740D01*
X26455000Y-41421260D01*
X26512068Y-41708158D01*
X26624010Y-41978411D01*
X26786525Y-42221632D01*
X26993368Y-42428475D01*
X27167760Y-42545000D01*
X26993368Y-42661525D01*
X26786525Y-42868368D01*
X26624010Y-43111589D01*
X26512068Y-43381842D01*
X26455000Y-43668740D01*
X26455000Y-43961260D01*
X26512068Y-44248158D01*
X26624010Y-44518411D01*
X26786525Y-44761632D01*
X26993368Y-44968475D01*
X27167760Y-45085000D01*
X26993368Y-45201525D01*
X26786525Y-45408368D01*
X26624010Y-45651589D01*
X26512068Y-45921842D01*
X26455000Y-46208740D01*
X26455000Y-46501260D01*
X26512068Y-46788158D01*
X26624010Y-47058411D01*
X26786525Y-47301632D01*
X26993368Y-47508475D01*
X27167760Y-47625000D01*
X26993368Y-47741525D01*
X26786525Y-47948368D01*
X26624010Y-48191589D01*
X26512068Y-48461842D01*
X26455000Y-48748740D01*
X26455000Y-49041260D01*
X26512068Y-49328158D01*
X26624010Y-49598411D01*
X26786525Y-49841632D01*
X26993368Y-50048475D01*
X27167760Y-50165000D01*
X26993368Y-50281525D01*
X26786525Y-50488368D01*
X26624010Y-50731589D01*
X26512068Y-51001842D01*
X26455000Y-51288740D01*
X26455000Y-51581260D01*
X26512068Y-51868158D01*
X26624010Y-52138411D01*
X26786525Y-52381632D01*
X26993368Y-52588475D01*
X27167760Y-52705000D01*
X26993368Y-52821525D01*
X26786525Y-53028368D01*
X26624010Y-53271589D01*
X26512068Y-53541842D01*
X26455000Y-53828740D01*
X26455000Y-54121260D01*
X26512068Y-54408158D01*
X26624010Y-54678411D01*
X26786525Y-54921632D01*
X26993368Y-55128475D01*
X27167760Y-55245000D01*
X26993368Y-55361525D01*
X26786525Y-55568368D01*
X26624010Y-55811589D01*
X26512068Y-56081842D01*
X26455000Y-56368740D01*
X26455000Y-56661260D01*
X26512068Y-56948158D01*
X26624010Y-57218411D01*
X26786525Y-57461632D01*
X26993368Y-57668475D01*
X27167760Y-57785000D01*
X26993368Y-57901525D01*
X26786525Y-58108368D01*
X26624010Y-58351589D01*
X26512068Y-58621842D01*
X26455000Y-58908740D01*
X26455000Y-59201260D01*
X26512068Y-59488158D01*
X26624010Y-59758411D01*
X26786525Y-60001632D01*
X26993368Y-60208475D01*
X27167760Y-60325000D01*
X26993368Y-60441525D01*
X26786525Y-60648368D01*
X26624010Y-60891589D01*
X26512068Y-61161842D01*
X26455000Y-61448740D01*
X26455000Y-61741260D01*
X26512068Y-62028158D01*
X26624010Y-62298411D01*
X26786525Y-62541632D01*
X26993368Y-62748475D01*
X27167760Y-62865000D01*
X26993368Y-62981525D01*
X26786525Y-63188368D01*
X26624010Y-63431589D01*
X26512068Y-63701842D01*
X26455000Y-63988740D01*
X26455000Y-64281260D01*
X26512068Y-64568158D01*
X26624010Y-64838411D01*
X26786525Y-65081632D01*
X26993368Y-65288475D01*
X27167760Y-65405000D01*
X26993368Y-65521525D01*
X26786525Y-65728368D01*
X26624010Y-65971589D01*
X26512068Y-66241842D01*
X26455000Y-66528740D01*
X26455000Y-66821260D01*
X26512068Y-67108158D01*
X26624010Y-67378411D01*
X26786525Y-67621632D01*
X26993368Y-67828475D01*
X27167760Y-67945000D01*
X26993368Y-68061525D01*
X26786525Y-68268368D01*
X26624010Y-68511589D01*
X26512068Y-68781842D01*
X26455000Y-69068740D01*
X26455000Y-69361260D01*
X26512068Y-69648158D01*
X26624010Y-69918411D01*
X26786525Y-70161632D01*
X26993368Y-70368475D01*
X27167760Y-70485000D01*
X26993368Y-70601525D01*
X26786525Y-70808368D01*
X26624010Y-71051589D01*
X26512068Y-71321842D01*
X26455000Y-71608740D01*
X26455000Y-71901260D01*
X26512068Y-72188158D01*
X26624010Y-72458411D01*
X26786525Y-72701632D01*
X26993368Y-72908475D01*
X27167760Y-73025000D01*
X26993368Y-73141525D01*
X26786525Y-73348368D01*
X26624010Y-73591589D01*
X26512068Y-73861842D01*
X26455000Y-74148740D01*
X26455000Y-74441260D01*
X26512068Y-74728158D01*
X26624010Y-74998411D01*
X26786525Y-75241632D01*
X26993368Y-75448475D01*
X27167760Y-75565000D01*
X26993368Y-75681525D01*
X26786525Y-75888368D01*
X26624010Y-76131589D01*
X26512068Y-76401842D01*
X26455000Y-76688740D01*
X26455000Y-76981260D01*
X26512068Y-77268158D01*
X26624010Y-77538411D01*
X26786525Y-77781632D01*
X26993368Y-77988475D01*
X27236589Y-78150990D01*
X27506842Y-78262932D01*
X27793740Y-78320000D01*
X28086260Y-78320000D01*
X28373158Y-78262932D01*
X28643411Y-78150990D01*
X28886632Y-77988475D01*
X29093475Y-77781632D01*
X29255990Y-77538411D01*
X29367932Y-77268158D01*
X29425000Y-76981260D01*
X29425000Y-76688740D01*
X29381210Y-76468592D01*
X29869930Y-75979872D01*
X30975500Y-75979872D01*
X30975500Y-76420128D01*
X31061390Y-76851925D01*
X31229869Y-77258669D01*
X31474462Y-77624729D01*
X31785771Y-77936038D01*
X32151831Y-78180631D01*
X32558575Y-78349110D01*
X32990372Y-78435000D01*
X33430628Y-78435000D01*
X33862425Y-78349110D01*
X34269169Y-78180631D01*
X34635229Y-77936038D01*
X34946538Y-77624729D01*
X35191131Y-77258669D01*
X35359610Y-76851925D01*
X35445500Y-76420128D01*
X35445500Y-75979872D01*
X35359610Y-75548075D01*
X35191131Y-75141331D01*
X34946538Y-74775271D01*
X34635229Y-74463962D01*
X34269169Y-74219369D01*
X33862425Y-74050890D01*
X33430628Y-73965000D01*
X32990372Y-73965000D01*
X32558575Y-74050890D01*
X32151831Y-74219369D01*
X31785771Y-74463962D01*
X31474462Y-74775271D01*
X31229869Y-75141331D01*
X31061390Y-75548075D01*
X30975500Y-75979872D01*
X29869930Y-75979872D01*
X30229004Y-75620798D01*
X30258001Y-75597001D01*
X30352974Y-75481276D01*
X30423546Y-75349247D01*
X30467003Y-75205986D01*
X30478000Y-75094333D01*
X30478000Y-75094325D01*
X30481676Y-75057000D01*
X30478000Y-75019675D01*
X30478000Y-74736801D01*
X32064802Y-73150000D01*
X34483199Y-73150000D01*
X36514500Y-75181302D01*
X36514501Y-76734168D01*
X36510824Y-76771500D01*
X36525498Y-76920485D01*
X36568954Y-77063746D01*
X36639526Y-77195776D01*
X36691142Y-77258669D01*
X36734500Y-77311501D01*
X36763498Y-77335299D01*
X37039791Y-77611592D01*
X36996000Y-77831740D01*
X36996000Y-78124260D01*
X37053068Y-78411158D01*
X37165010Y-78681411D01*
X37327525Y-78924632D01*
X37534368Y-79131475D01*
X37777589Y-79293990D01*
X37852454Y-79325000D01*
X26953737Y-79325000D01*
X26085000Y-78456264D01*
X26085000Y-27725000D01*
X26451928Y-27725000D01*
X26451928Y-29425000D01*
X26464188Y-29549482D01*
X26500498Y-29669180D01*
X26559463Y-29779494D01*
X26638815Y-29876185D01*
X26735506Y-29955537D01*
X26845820Y-30014502D01*
X26926466Y-30038966D01*
X26842412Y-30114731D01*
X26668359Y-30348080D01*
X26543175Y-30610901D01*
X26498524Y-30758110D01*
X26619845Y-30988000D01*
X27813000Y-30988000D01*
X27813000Y-30968000D01*
X28067000Y-30968000D01*
X28067000Y-30988000D01*
X29260155Y-30988000D01*
X29381476Y-30758110D01*
X29336825Y-30610901D01*
X29211641Y-30348080D01*
X29037588Y-30114731D01*
X28953534Y-30038966D01*
X29034180Y-30014502D01*
X29144494Y-29955537D01*
X29241185Y-29876185D01*
X29320537Y-29779494D01*
X29379502Y-29669180D01*
X29415812Y-29549482D01*
X29428072Y-29425000D01*
X29428072Y-27950789D01*
X30915540Y-27950789D01*
X30964237Y-28353641D01*
X31090592Y-28739252D01*
X31238868Y-29016658D01*
X31546750Y-29163645D01*
X32805395Y-27905000D01*
X31546750Y-26646355D01*
X31238868Y-26793342D01*
X31055545Y-27155356D01*
X30946371Y-27546178D01*
X30915540Y-27950789D01*
X29428072Y-27950789D01*
X29428072Y-27725000D01*
X29415812Y-27600518D01*
X29379502Y-27480820D01*
X29320537Y-27370506D01*
X29241185Y-27273815D01*
X29144494Y-27194463D01*
X29034180Y-27135498D01*
X28914482Y-27099188D01*
X28790000Y-27086928D01*
X27090000Y-27086928D01*
X26965518Y-27099188D01*
X26845820Y-27135498D01*
X26735506Y-27194463D01*
X26638815Y-27273815D01*
X26559463Y-27370506D01*
X26500498Y-27480820D01*
X26464188Y-27600518D01*
X26451928Y-27725000D01*
X26085000Y-27725000D01*
X26085000Y-26953736D01*
X26953737Y-26085000D01*
X32011540Y-26085000D01*
X31873342Y-26158868D01*
%TA.AperFunction,Conductor*%
D20*
G36*
X31873342Y-26158868D02*
G01*
X31726355Y-26466750D01*
X32985000Y-27725395D01*
X34243645Y-26466750D01*
X34096658Y-26158868D01*
X33950788Y-26085000D01*
X37150921Y-26085000D01*
X36821827Y-26304894D01*
X36534894Y-26591827D01*
X36309452Y-26929224D01*
X36154165Y-27304120D01*
X36075000Y-27702108D01*
X36075000Y-28107892D01*
X36154165Y-28505880D01*
X36271186Y-28788393D01*
X36095250Y-28715518D01*
X35740732Y-28645000D01*
X35379268Y-28645000D01*
X35024750Y-28715518D01*
X34846170Y-28789488D01*
X34914455Y-28654644D01*
X35023629Y-28263822D01*
X35054460Y-27859211D01*
X35005763Y-27456359D01*
X34879408Y-27070748D01*
X34731132Y-26793342D01*
X34423250Y-26646355D01*
X33164605Y-27905000D01*
X33178748Y-27919143D01*
X32999143Y-28098748D01*
X32985000Y-28084605D01*
X31726355Y-29343250D01*
X31873342Y-29651132D01*
X32235356Y-29834455D01*
X32626178Y-29943629D01*
X33030789Y-29974460D01*
X33433641Y-29925763D01*
X33819252Y-29799408D01*
X33866091Y-29774372D01*
X33795518Y-29944750D01*
X33725000Y-30299268D01*
X33725000Y-30660732D01*
X33795518Y-31015250D01*
X33868393Y-31191186D01*
X33585880Y-31074165D01*
X33187892Y-30995000D01*
X32782108Y-30995000D01*
X32384120Y-31074165D01*
X32009224Y-31229452D01*
X31671827Y-31454894D01*
X31384894Y-31741827D01*
X31159452Y-32079224D01*
X31004165Y-32454120D01*
X30925000Y-32852108D01*
X30925000Y-33257892D01*
X31004165Y-33655880D01*
X31159452Y-34030776D01*
X31384894Y-34368173D01*
X31671827Y-34655106D01*
X32009224Y-34880548D01*
X32384120Y-35035835D01*
X32782108Y-35115000D01*
X33187892Y-35115000D01*
X33585880Y-35035835D01*
X33960776Y-34880548D01*
X34298173Y-34655106D01*
X34585106Y-34368173D01*
X34800000Y-34046562D01*
X34800000Y-34506677D01*
X34796324Y-34544000D01*
X34800000Y-34581322D01*
X34800000Y-34581332D01*
X34810997Y-34692985D01*
X34846030Y-34808475D01*
X34854454Y-34836246D01*
X34925026Y-34968276D01*
X34938304Y-34984455D01*
X35019999Y-35084001D01*
X35049002Y-35107803D01*
X35758201Y-35817002D01*
X35781999Y-35846001D01*
X35897724Y-35940974D01*
X36029753Y-36011546D01*
X36173014Y-36055003D01*
X36284667Y-36066000D01*
X36284675Y-36066000D01*
X36322000Y-36069676D01*
X36359325Y-36066000D01*
X53533199Y-36066000D01*
X55628000Y-38160803D01*
X55628000Y-38570678D01*
X55624324Y-38608000D01*
X55628000Y-38645322D01*
X55628000Y-38645332D01*
X55638997Y-38756985D01*
X55676695Y-38881260D01*
X55682454Y-38900246D01*
X55753026Y-39032276D01*
X55755664Y-39035490D01*
X55847999Y-39148001D01*
X55861000Y-39158671D01*
X55861000Y-39217939D01*
X55900774Y-39417898D01*
X55978795Y-39606256D01*
X56092063Y-39775774D01*
X56236226Y-39919937D01*
X56405744Y-40033205D01*
X56594102Y-40111226D01*
X56794061Y-40151000D01*
X56997939Y-40151000D01*
X57197898Y-40111226D01*
X57386256Y-40033205D01*
X57555774Y-39919937D01*
X57699937Y-39775774D01*
X57813205Y-39606256D01*
X57891226Y-39417898D01*
X57931000Y-39217939D01*
X57931000Y-39154979D01*
X57932774Y-39163898D01*
X58010795Y-39352256D01*
X58124063Y-39521774D01*
X58268226Y-39665937D01*
X58437744Y-39779205D01*
X58626102Y-39857226D01*
X58826061Y-39897000D01*
X59029939Y-39897000D01*
X59229898Y-39857226D01*
X59418256Y-39779205D01*
X59587774Y-39665937D01*
X59731937Y-39521774D01*
X59845205Y-39352256D01*
X59923226Y-39163898D01*
X59963000Y-38963939D01*
X59963000Y-38760061D01*
X59923226Y-38560102D01*
X59845205Y-38371744D01*
X59731937Y-38202226D01*
X59587774Y-38058063D01*
X59418256Y-37944795D01*
X59229898Y-37866774D01*
X59173044Y-37855465D01*
X56165254Y-34847676D01*
X56435356Y-34984455D01*
X56826178Y-35093629D01*
X57230789Y-35124460D01*
X57633641Y-35075763D01*
X58019252Y-34949408D01*
X58296658Y-34801132D01*
X58443645Y-34493250D01*
X57185000Y-33234605D01*
X57170858Y-33248748D01*
X56991253Y-33069143D01*
X57005395Y-33055000D01*
X57364605Y-33055000D01*
X58623250Y-34313645D01*
X58931132Y-34166658D01*
X59114455Y-33804644D01*
X59223629Y-33413822D01*
X59254460Y-33009211D01*
X59205763Y-32606359D01*
X59079408Y-32220748D01*
X58931132Y-31943342D01*
X58623250Y-31796355D01*
X57364605Y-33055000D01*
X57005395Y-33055000D01*
X56991253Y-33040858D01*
X57170858Y-32861253D01*
X57185000Y-32875395D01*
X58443645Y-31616750D01*
X58404617Y-31535000D01*
X59979928Y-31535000D01*
X59979928Y-33235000D01*
X59992188Y-33359482D01*
X60028498Y-33479180D01*
X60087463Y-33589494D01*
X60166815Y-33686185D01*
X60263506Y-33765537D01*
X60373820Y-33824502D01*
X60493518Y-33860812D01*
X60618000Y-33873072D01*
X62318000Y-33873072D01*
X62442482Y-33860812D01*
X62562180Y-33824502D01*
X62672494Y-33765537D01*
X62769185Y-33686185D01*
X62848537Y-33589494D01*
X62907502Y-33479180D01*
X62943812Y-33359482D01*
X62956072Y-33235000D01*
X62956072Y-31535000D01*
X62943812Y-31410518D01*
X62907502Y-31290820D01*
X62848537Y-31180506D01*
X62769185Y-31083815D01*
X62672494Y-31004463D01*
X62562180Y-30945498D01*
X62442482Y-30909188D01*
X62318000Y-30896928D01*
X60618000Y-30896928D01*
X60493518Y-30909188D01*
X60373820Y-30945498D01*
X60263506Y-31004463D01*
X60166815Y-31083815D01*
X60087463Y-31180506D01*
X60028498Y-31290820D01*
X59992188Y-31410518D01*
X59979928Y-31535000D01*
X58404617Y-31535000D01*
X58296658Y-31308868D01*
X57934644Y-31125545D01*
X57543822Y-31016371D01*
X57139211Y-30985540D01*
X56736359Y-31034237D01*
X56350748Y-31160592D01*
X56303909Y-31185628D01*
X56374482Y-31015250D01*
X56445000Y-30660732D01*
X56445000Y-30299268D01*
X56374482Y-29944750D01*
X56301607Y-29768814D01*
X56584120Y-29885835D01*
X56982108Y-29965000D01*
X57387892Y-29965000D01*
X57785880Y-29885835D01*
X58160776Y-29730548D01*
X58498173Y-29505106D01*
X58578279Y-29425000D01*
X64551928Y-29425000D01*
X64564188Y-29549482D01*
X64600498Y-29669180D01*
X64659463Y-29779494D01*
X64738815Y-29876185D01*
X64835506Y-29955537D01*
X64945820Y-30014502D01*
X65026466Y-30038966D01*
X64942412Y-30114731D01*
X64768359Y-30348080D01*
X64643175Y-30610901D01*
X64598524Y-30758110D01*
X64719845Y-30988000D01*
X65913000Y-30988000D01*
X65913000Y-28702000D01*
X66167000Y-28702000D01*
X66167000Y-30988000D01*
X67360155Y-30988000D01*
X67481476Y-30758110D01*
X67436825Y-30610901D01*
X67311641Y-30348080D01*
X67137588Y-30114731D01*
X67053534Y-30038966D01*
X67134180Y-30014502D01*
X67244494Y-29955537D01*
X67341185Y-29876185D01*
X67420537Y-29779494D01*
X67479502Y-29669180D01*
X67515812Y-29549482D01*
X67528072Y-29425000D01*
X67525000Y-28860750D01*
X67366250Y-28702000D01*
X66167000Y-28702000D01*
X65913000Y-28702000D01*
X64713750Y-28702000D01*
X64555000Y-28860750D01*
X64551928Y-29425000D01*
X58578279Y-29425000D01*
X58785106Y-29218173D01*
X59010548Y-28880776D01*
X59165835Y-28505880D01*
X59245000Y-28107892D01*
X59245000Y-27725000D01*
X64551928Y-27725000D01*
X64555000Y-28289250D01*
X64713750Y-28448000D01*
X65913000Y-28448000D01*
X65913000Y-27248750D01*
X66167000Y-27248750D01*
X66167000Y-28448000D01*
X67366250Y-28448000D01*
X67525000Y-28289250D01*
X67528072Y-27725000D01*
X67515812Y-27600518D01*
X67479502Y-27480820D01*
X67420537Y-27370506D01*
X67341185Y-27273815D01*
X67244494Y-27194463D01*
X67134180Y-27135498D01*
X67014482Y-27099188D01*
X66890000Y-27086928D01*
X66325750Y-27090000D01*
X66167000Y-27248750D01*
X65913000Y-27248750D01*
X65754250Y-27090000D01*
X65190000Y-27086928D01*
X65065518Y-27099188D01*
X64945820Y-27135498D01*
X64835506Y-27194463D01*
X64738815Y-27273815D01*
X64659463Y-27370506D01*
X64600498Y-27480820D01*
X64564188Y-27600518D01*
X64551928Y-27725000D01*
X59245000Y-27725000D01*
X59245000Y-27702108D01*
X59165835Y-27304120D01*
X59010548Y-26929224D01*
X58785106Y-26591827D01*
X58498173Y-26304894D01*
X58169079Y-26085000D01*
X67026264Y-26085000D01*
X67895000Y-26953737D01*
X67895001Y-78456262D01*
X67026264Y-79325000D01*
X39109546Y-79325000D01*
X39184411Y-79293990D01*
X39427632Y-79131475D01*
X39634475Y-78924632D01*
X39759178Y-78738000D01*
X43572178Y-78738000D01*
X43609500Y-78741676D01*
X43646822Y-78738000D01*
X43646833Y-78738000D01*
X43758486Y-78727003D01*
X43901747Y-78683546D01*
X44033776Y-78612974D01*
X44149501Y-78518001D01*
X44173303Y-78488998D01*
X44267229Y-78395072D01*
X44390000Y-78395072D01*
X44493644Y-78384864D01*
X44558250Y-78392000D01*
X44590497Y-78359753D01*
X44634180Y-78346502D01*
X44740000Y-78289939D01*
X44845820Y-78346502D01*
X44889503Y-78359753D01*
X44921750Y-78392000D01*
X44986356Y-78384864D01*
X45063428Y-78392455D01*
X45105026Y-78470278D01*
X45117110Y-78485002D01*
X45199999Y-78586003D01*
X45229003Y-78609806D01*
X45266195Y-78646998D01*
X45289998Y-78676002D01*
X45405723Y-78770975D01*
X45537752Y-78841547D01*
X45681013Y-78885004D01*
X45792666Y-78896001D01*
X45792677Y-78896001D01*
X45829999Y-78899677D01*
X45867322Y-78896001D01*
X47364678Y-78896001D01*
X47402000Y-78899677D01*
X47439323Y-78896001D01*
X48127677Y-78896001D01*
X48164999Y-78899677D01*
X48202321Y-78896001D01*
X48202332Y-78896001D01*
X48313985Y-78885004D01*
X48457246Y-78841547D01*
X48501865Y-78817697D01*
X48579986Y-78810003D01*
X48723247Y-78766546D01*
X48855276Y-78695974D01*
X48971001Y-78601001D01*
X48994804Y-78571997D01*
X49171729Y-78395072D01*
X49390000Y-78395072D01*
X49490000Y-78385223D01*
X49590000Y-78395072D01*
X49890000Y-78395072D01*
X50014482Y-78382812D01*
X50134180Y-78346502D01*
X50244494Y-78287537D01*
X50341185Y-78208185D01*
X50420537Y-78111494D01*
X50479502Y-78001180D01*
X50515812Y-77881482D01*
X50528072Y-77757000D01*
X50528072Y-77685000D01*
X54074428Y-77685000D01*
X54086688Y-77809482D01*
X54122998Y-77929180D01*
X54181963Y-78039494D01*
X54261315Y-78136185D01*
X54358006Y-78215537D01*
X54468320Y-78274502D01*
X54588018Y-78310812D01*
X54712500Y-78323072D01*
X55276750Y-78320000D01*
X55435500Y-78161250D01*
X55435500Y-76962000D01*
X55689500Y-76962000D01*
X55689500Y-78161250D01*
X55848250Y-78320000D01*
X56412500Y-78323072D01*
X56536982Y-78310812D01*
X56656680Y-78274502D01*
X56766994Y-78215537D01*
X56863685Y-78136185D01*
X56943037Y-78039494D01*
X57002002Y-77929180D01*
X57038312Y-77809482D01*
X57050572Y-77685000D01*
X57047500Y-77120750D01*
X56888750Y-76962000D01*
X55689500Y-76962000D01*
X55435500Y-76962000D01*
X54236250Y-76962000D01*
X54077500Y-77120750D01*
X54074428Y-77685000D01*
X50528072Y-77685000D01*
X50528072Y-77435072D01*
X53020000Y-77435072D01*
X53144482Y-77422812D01*
X53264180Y-77386502D01*
X53374494Y-77327537D01*
X53471185Y-77248185D01*
X53550537Y-77151494D01*
X53609502Y-77041180D01*
X53645812Y-76921482D01*
X53658072Y-76797000D01*
X53658072Y-75985000D01*
X54074428Y-75985000D01*
X54077500Y-76549250D01*
X54236250Y-76708000D01*
X55435500Y-76708000D01*
X55435500Y-75508750D01*
X55689500Y-75508750D01*
X55689500Y-76708000D01*
X56888750Y-76708000D01*
X57047500Y-76549250D01*
X57050572Y-75985000D01*
X57050067Y-75979872D01*
X58598000Y-75979872D01*
X58598000Y-76420128D01*
X58683890Y-76851925D01*
X58852369Y-77258669D01*
X59096962Y-77624729D01*
X59408271Y-77936038D01*
X59774331Y-78180631D01*
X60181075Y-78349110D01*
X60612872Y-78435000D01*
X61053128Y-78435000D01*
X61484925Y-78349110D01*
X61891669Y-78180631D01*
X62257729Y-77936038D01*
X62569038Y-77624729D01*
X62813631Y-77258669D01*
X62982110Y-76851925D01*
X63068000Y-76420128D01*
X63068000Y-75979872D01*
X62982110Y-75548075D01*
X62813631Y-75141331D01*
X62569038Y-74775271D01*
X62257729Y-74463962D01*
X61891669Y-74219369D01*
X61484925Y-74050890D01*
X61053128Y-73965000D01*
X60612872Y-73965000D01*
X60181075Y-74050890D01*
X59774331Y-74219369D01*
X59408271Y-74463962D01*
X59096962Y-74775271D01*
X58852369Y-75141331D01*
X58683890Y-75548075D01*
X58598000Y-75979872D01*
X57050067Y-75979872D01*
X57038312Y-75860518D01*
X57002002Y-75740820D01*
X56943037Y-75630506D01*
X56863685Y-75533815D01*
X56766994Y-75454463D01*
X56656680Y-75395498D01*
X56536982Y-75359188D01*
X56412500Y-75346928D01*
X55848250Y-75350000D01*
X55689500Y-75508750D01*
X55435500Y-75508750D01*
X55276750Y-75350000D01*
X54712500Y-75346928D01*
X54588018Y-75359188D01*
X54468320Y-75395498D01*
X54358006Y-75454463D01*
X54261315Y-75533815D01*
X54181963Y-75630506D01*
X54122998Y-75740820D01*
X54086688Y-75860518D01*
X54074428Y-75985000D01*
X53658072Y-75985000D01*
X53658072Y-73797000D01*
X53645812Y-73672518D01*
X53609502Y-73552820D01*
X53550537Y-73442506D01*
X53471185Y-73345815D01*
X53374494Y-73266463D01*
X53264180Y-73207498D01*
X53144482Y-73171188D01*
X53020000Y-73158928D01*
X50851873Y-73158928D01*
X51220802Y-72790000D01*
X51282939Y-72790000D01*
X51482898Y-72750226D01*
X51671256Y-72672205D01*
X51840774Y-72558937D01*
X51984937Y-72414774D01*
X52098205Y-72245256D01*
X52176226Y-72056898D01*
X52216000Y-71856939D01*
X52216000Y-71653061D01*
X52176226Y-71453102D01*
X52098205Y-71264744D01*
X51984937Y-71095226D01*
X51840774Y-70951063D01*
X51671256Y-70837795D01*
X51482898Y-70759774D01*
X51282939Y-70720000D01*
X51079061Y-70720000D01*
X50917999Y-70752037D01*
X50917999Y-69508000D01*
X57566928Y-69508000D01*
X57566928Y-71208000D01*
X57579188Y-71332482D01*
X57615498Y-71452180D01*
X57674463Y-71562494D01*
X57753815Y-71659185D01*
X57850506Y-71738537D01*
X57960820Y-71797502D01*
X58080518Y-71833812D01*
X58205000Y-71846072D01*
X59905000Y-71846072D01*
X60029482Y-71833812D01*
X60149180Y-71797502D01*
X60259494Y-71738537D01*
X60356185Y-71659185D01*
X60435537Y-71562494D01*
X60494502Y-71452180D01*
X60530812Y-71332482D01*
X60543072Y-71208000D01*
X60543072Y-69508000D01*
X60530812Y-69383518D01*
X60494502Y-69263820D01*
X60435537Y-69153506D01*
X60356185Y-69056815D01*
X60259494Y-68977463D01*
X60149180Y-68918498D01*
X60029482Y-68882188D01*
X59905000Y-68869928D01*
X58205000Y-68869928D01*
X58080518Y-68882188D01*
X57960820Y-68918498D01*
X57850506Y-68977463D01*
X57753815Y-69056815D01*
X57674463Y-69153506D01*
X57615498Y-69263820D01*
X57579188Y-69383518D01*
X57566928Y-69508000D01*
X50917999Y-69508000D01*
X50917999Y-65181321D01*
X50921675Y-65143998D01*
X50917999Y-65106676D01*
X50917999Y-65106666D01*
X50907002Y-64995013D01*
X50863545Y-64851752D01*
X50793000Y-64719774D01*
X50793000Y-64642061D01*
X50753226Y-64442102D01*
X50675205Y-64253744D01*
X50599443Y-64140358D01*
X51882503Y-62857299D01*
X51911501Y-62833501D01*
X52006474Y-62717776D01*
X52077046Y-62585747D01*
X52120503Y-62442486D01*
X52131500Y-62330833D01*
X52135177Y-62293500D01*
X52131500Y-62256167D01*
X52131500Y-62219509D01*
X52155063Y-62254774D01*
X52299226Y-62398937D01*
X52468744Y-62512205D01*
X52657102Y-62590226D01*
X52857061Y-62630000D01*
X53060939Y-62630000D01*
X53260898Y-62590226D01*
X53449256Y-62512205D01*
X53618774Y-62398937D01*
X53662711Y-62355000D01*
X59113289Y-62355000D01*
X59157226Y-62398937D01*
X59326744Y-62512205D01*
X59515102Y-62590226D01*
X59715061Y-62630000D01*
X59918939Y-62630000D01*
X60118898Y-62590226D01*
X60307256Y-62512205D01*
X60476774Y-62398937D01*
X60620937Y-62254774D01*
X60734205Y-62085256D01*
X60812226Y-61896898D01*
X60852000Y-61696939D01*
X60852000Y-61493061D01*
X60812226Y-61293102D01*
X60734205Y-61104744D01*
X60620937Y-60935226D01*
X60476774Y-60791063D01*
X60307256Y-60677795D01*
X60118898Y-60599774D01*
X59918939Y-60560000D01*
X59715061Y-60560000D01*
X59515102Y-60599774D01*
X59326744Y-60677795D01*
X59157226Y-60791063D01*
X59113289Y-60835000D01*
X53662711Y-60835000D01*
X53618774Y-60791063D01*
X53449256Y-60677795D01*
X53260898Y-60599774D01*
X53060939Y-60560000D01*
X52857061Y-60560000D01*
X52657102Y-60599774D01*
X52468744Y-60677795D01*
X52299226Y-60791063D01*
X52155063Y-60935226D01*
X52131500Y-60970491D01*
X52131500Y-59242801D01*
X52194302Y-59180000D01*
X60351178Y-59180000D01*
X60388500Y-59183676D01*
X60425822Y-59180000D01*
X60425833Y-59180000D01*
X60537486Y-59169003D01*
X60680747Y-59125546D01*
X60812776Y-59054974D01*
X60928501Y-58960001D01*
X60952304Y-58930997D01*
X61283729Y-58599572D01*
X62058500Y-58599572D01*
X62231754Y-58582508D01*
X62398350Y-58531972D01*
X62551886Y-58449905D01*
X62686462Y-58339462D01*
X62796905Y-58204886D01*
X62878972Y-58051350D01*
X62929508Y-57884754D01*
X62946572Y-57711500D01*
X62946572Y-56461500D01*
X62929508Y-56288246D01*
X62878972Y-56121650D01*
X62796905Y-55968114D01*
X62686462Y-55833538D01*
X62551886Y-55723095D01*
X62398350Y-55641028D01*
X62343500Y-55624390D01*
X62343500Y-54965202D01*
X62476886Y-54893905D01*
X62611462Y-54783462D01*
X62721905Y-54648886D01*
X62803972Y-54495350D01*
X62854508Y-54328754D01*
X62871572Y-54155500D01*
X62871572Y-52905500D01*
X62854508Y-52732246D01*
X62803972Y-52565650D01*
X62721905Y-52412114D01*
X62611462Y-52277538D01*
X62476886Y-52167095D01*
X62323350Y-52085028D01*
X62156754Y-52034492D01*
X61983500Y-52017428D01*
X61183500Y-52017428D01*
X61010246Y-52034492D01*
X60843650Y-52085028D01*
X60704000Y-52159673D01*
X60704000Y-45145801D01*
X64555000Y-41294802D01*
X64555000Y-41421260D01*
X64612068Y-41708158D01*
X64724010Y-41978411D01*
X64886525Y-42221632D01*
X65093368Y-42428475D01*
X65267760Y-42545000D01*
X65093368Y-42661525D01*
X64886525Y-42868368D01*
X64724010Y-43111589D01*
X64612068Y-43381842D01*
X64555000Y-43668740D01*
X64555000Y-43961260D01*
X64612068Y-44248158D01*
X64724010Y-44518411D01*
X64886525Y-44761632D01*
X65093368Y-44968475D01*
X65267760Y-45085000D01*
X65093368Y-45201525D01*
X64886525Y-45408368D01*
X64724010Y-45651589D01*
X64612068Y-45921842D01*
X64555000Y-46208740D01*
X64555000Y-46501260D01*
X64612068Y-46788158D01*
X64724010Y-47058411D01*
X64886525Y-47301632D01*
X65093368Y-47508475D01*
X65267760Y-47625000D01*
X65093368Y-47741525D01*
X64886525Y-47948368D01*
X64724010Y-48191589D01*
X64612068Y-48461842D01*
X64555000Y-48748740D01*
X64555000Y-49041260D01*
X64612068Y-49328158D01*
X64724010Y-49598411D01*
X64886525Y-49841632D01*
X65093368Y-50048475D01*
X65267760Y-50165000D01*
X65093368Y-50281525D01*
X64886525Y-50488368D01*
X64724010Y-50731589D01*
X64612068Y-51001842D01*
X64555000Y-51288740D01*
X64555000Y-51581260D01*
X64612068Y-51868158D01*
X64724010Y-52138411D01*
X64886525Y-52381632D01*
X65093368Y-52588475D01*
X65267760Y-52705000D01*
X65093368Y-52821525D01*
X64886525Y-53028368D01*
X64724010Y-53271589D01*
X64612068Y-53541842D01*
X64555000Y-53828740D01*
X64555000Y-54121260D01*
X64612068Y-54408158D01*
X64724010Y-54678411D01*
X64886525Y-54921632D01*
X65093368Y-55128475D01*
X65267760Y-55245000D01*
X65093368Y-55361525D01*
X64886525Y-55568368D01*
X64724010Y-55811589D01*
X64612068Y-56081842D01*
X64555000Y-56368740D01*
X64555000Y-56661260D01*
X64612068Y-56948158D01*
X64724010Y-57218411D01*
X64886525Y-57461632D01*
X65093368Y-57668475D01*
X65267760Y-57785000D01*
X65093368Y-57901525D01*
X64886525Y-58108368D01*
X64724010Y-58351589D01*
X64612068Y-58621842D01*
X64555000Y-58908740D01*
X64555000Y-59201260D01*
X64612068Y-59488158D01*
X64724010Y-59758411D01*
X64886525Y-60001632D01*
X65093368Y-60208475D01*
X65267760Y-60325000D01*
X65093368Y-60441525D01*
X64886525Y-60648368D01*
X64724010Y-60891589D01*
X64612068Y-61161842D01*
X64555000Y-61448740D01*
X64555000Y-61741260D01*
X64612068Y-62028158D01*
X64724010Y-62298411D01*
X64886525Y-62541632D01*
X65093368Y-62748475D01*
X65267760Y-62865000D01*
X65093368Y-62981525D01*
X64886525Y-63188368D01*
X64724010Y-63431589D01*
X64612068Y-63701842D01*
X64555000Y-63988740D01*
X64555000Y-64281260D01*
X64612068Y-64568158D01*
X64724010Y-64838411D01*
X64886525Y-65081632D01*
X65093368Y-65288475D01*
X65267760Y-65405000D01*
X65093368Y-65521525D01*
X64886525Y-65728368D01*
X64724010Y-65971589D01*
X64612068Y-66241842D01*
X64555000Y-66528740D01*
X64555000Y-66821260D01*
X64612068Y-67108158D01*
X64724010Y-67378411D01*
X64886525Y-67621632D01*
X65093368Y-67828475D01*
X65267760Y-67945000D01*
X65093368Y-68061525D01*
X64886525Y-68268368D01*
X64724010Y-68511589D01*
X64612068Y-68781842D01*
X64555000Y-69068740D01*
X64555000Y-69361260D01*
X64612068Y-69648158D01*
X64724010Y-69918411D01*
X64886525Y-70161632D01*
X65093368Y-70368475D01*
X65267760Y-70485000D01*
X65093368Y-70601525D01*
X64886525Y-70808368D01*
X64724010Y-71051589D01*
X64612068Y-71321842D01*
X64555000Y-71608740D01*
X64555000Y-71901260D01*
X64612068Y-72188158D01*
X64724010Y-72458411D01*
X64886525Y-72701632D01*
X65093368Y-72908475D01*
X65267760Y-73025000D01*
X65093368Y-73141525D01*
X64886525Y-73348368D01*
X64724010Y-73591589D01*
X64612068Y-73861842D01*
X64555000Y-74148740D01*
X64555000Y-74441260D01*
X64612068Y-74728158D01*
X64724010Y-74998411D01*
X64886525Y-75241632D01*
X65093368Y-75448475D01*
X65267760Y-75565000D01*
X65093368Y-75681525D01*
X64886525Y-75888368D01*
X64724010Y-76131589D01*
X64612068Y-76401842D01*
X64555000Y-76688740D01*
X64555000Y-76981260D01*
X64612068Y-77268158D01*
X64724010Y-77538411D01*
X64886525Y-77781632D01*
X65093368Y-77988475D01*
X65336589Y-78150990D01*
X65606842Y-78262932D01*
X65893740Y-78320000D01*
X66186260Y-78320000D01*
X66473158Y-78262932D01*
X66743411Y-78150990D01*
X66986632Y-77988475D01*
X67193475Y-77781632D01*
X67355990Y-77538411D01*
X67467932Y-77268158D01*
X67525000Y-76981260D01*
X67525000Y-76688740D01*
X67467932Y-76401842D01*
X67355990Y-76131589D01*
X67193475Y-75888368D01*
X66986632Y-75681525D01*
X66812240Y-75565000D01*
X66986632Y-75448475D01*
X67193475Y-75241632D01*
X67355990Y-74998411D01*
X67467932Y-74728158D01*
X67525000Y-74441260D01*
X67525000Y-74148740D01*
X67467932Y-73861842D01*
X67355990Y-73591589D01*
X67193475Y-73348368D01*
X66986632Y-73141525D01*
X66812240Y-73025000D01*
X66986632Y-72908475D01*
X67193475Y-72701632D01*
X67355990Y-72458411D01*
X67467932Y-72188158D01*
X67525000Y-71901260D01*
X67525000Y-71608740D01*
X67467932Y-71321842D01*
X67355990Y-71051589D01*
X67193475Y-70808368D01*
X66986632Y-70601525D01*
X66812240Y-70485000D01*
X66986632Y-70368475D01*
X67193475Y-70161632D01*
X67355990Y-69918411D01*
X67467932Y-69648158D01*
X67525000Y-69361260D01*
X67525000Y-69068740D01*
X67467932Y-68781842D01*
X67355990Y-68511589D01*
X67193475Y-68268368D01*
X66986632Y-68061525D01*
X66812240Y-67945000D01*
X66986632Y-67828475D01*
X67193475Y-67621632D01*
X67355990Y-67378411D01*
X67467932Y-67108158D01*
X67525000Y-66821260D01*
X67525000Y-66528740D01*
X67467932Y-66241842D01*
X67355990Y-65971589D01*
X67193475Y-65728368D01*
X66986632Y-65521525D01*
X66812240Y-65405000D01*
X66986632Y-65288475D01*
X67193475Y-65081632D01*
X67355990Y-64838411D01*
X67467932Y-64568158D01*
X67525000Y-64281260D01*
X67525000Y-63988740D01*
X67467932Y-63701842D01*
X67355990Y-63431589D01*
X67193475Y-63188368D01*
X66986632Y-62981525D01*
X66812240Y-62865000D01*
X66986632Y-62748475D01*
X67193475Y-62541632D01*
X67355990Y-62298411D01*
X67467932Y-62028158D01*
X67525000Y-61741260D01*
X67525000Y-61448740D01*
X67467932Y-61161842D01*
X67355990Y-60891589D01*
X67193475Y-60648368D01*
X66986632Y-60441525D01*
X66812240Y-60325000D01*
X66986632Y-60208475D01*
X67193475Y-60001632D01*
X67355990Y-59758411D01*
X67467932Y-59488158D01*
X67525000Y-59201260D01*
X67525000Y-58908740D01*
X67467932Y-58621842D01*
X67355990Y-58351589D01*
X67193475Y-58108368D01*
X66986632Y-57901525D01*
X66812240Y-57785000D01*
X66986632Y-57668475D01*
X67193475Y-57461632D01*
X67355990Y-57218411D01*
X67467932Y-56948158D01*
X67525000Y-56661260D01*
X67525000Y-56368740D01*
X67467932Y-56081842D01*
X67355990Y-55811589D01*
X67193475Y-55568368D01*
X66986632Y-55361525D01*
X66812240Y-55245000D01*
X66986632Y-55128475D01*
X67193475Y-54921632D01*
X67355990Y-54678411D01*
X67467932Y-54408158D01*
X67525000Y-54121260D01*
X67525000Y-53828740D01*
X67467932Y-53541842D01*
X67355990Y-53271589D01*
X67193475Y-53028368D01*
X66986632Y-52821525D01*
X66812240Y-52705000D01*
X66986632Y-52588475D01*
X67193475Y-52381632D01*
X67355990Y-52138411D01*
X67467932Y-51868158D01*
X67525000Y-51581260D01*
X67525000Y-51288740D01*
X67467932Y-51001842D01*
X67355990Y-50731589D01*
X67193475Y-50488368D01*
X66986632Y-50281525D01*
X66812240Y-50165000D01*
X66986632Y-50048475D01*
X67193475Y-49841632D01*
X67355990Y-49598411D01*
X67467932Y-49328158D01*
X67525000Y-49041260D01*
X67525000Y-48748740D01*
X67467932Y-48461842D01*
X67355990Y-48191589D01*
X67193475Y-47948368D01*
X66986632Y-47741525D01*
X66812240Y-47625000D01*
X66986632Y-47508475D01*
X67193475Y-47301632D01*
X67355990Y-47058411D01*
X67467932Y-46788158D01*
X67525000Y-46501260D01*
X67525000Y-46208740D01*
X67467932Y-45921842D01*
X67355990Y-45651589D01*
X67193475Y-45408368D01*
X66986632Y-45201525D01*
X66812240Y-45085000D01*
X66986632Y-44968475D01*
X67193475Y-44761632D01*
X67355990Y-44518411D01*
X67467932Y-44248158D01*
X67525000Y-43961260D01*
X67525000Y-43668740D01*
X67467932Y-43381842D01*
X67355990Y-43111589D01*
X67193475Y-42868368D01*
X66986632Y-42661525D01*
X66812240Y-42545000D01*
X66986632Y-42428475D01*
X67193475Y-42221632D01*
X67355990Y-41978411D01*
X67467932Y-41708158D01*
X67525000Y-41421260D01*
X67525000Y-41128740D01*
X67467932Y-40841842D01*
X67355990Y-40571589D01*
X67193475Y-40328368D01*
X66986632Y-40121525D01*
X66812240Y-40005000D01*
X66986632Y-39888475D01*
X67193475Y-39681632D01*
X67355990Y-39438411D01*
X67467932Y-39168158D01*
X67525000Y-38881260D01*
X67525000Y-38588740D01*
X67467932Y-38301842D01*
X67355990Y-38031589D01*
X67193475Y-37788368D01*
X66986632Y-37581525D01*
X66812240Y-37465000D01*
X66986632Y-37348475D01*
X67193475Y-37141632D01*
X67355990Y-36898411D01*
X67467932Y-36628158D01*
X67525000Y-36341260D01*
X67525000Y-36048740D01*
X67467932Y-35761842D01*
X67355990Y-35491589D01*
X67193475Y-35248368D01*
X66986632Y-35041525D01*
X66812240Y-34925000D01*
X66986632Y-34808475D01*
X67193475Y-34601632D01*
X67355990Y-34358411D01*
X67467932Y-34088158D01*
X67525000Y-33801260D01*
X67525000Y-33508740D01*
X67467932Y-33221842D01*
X67355990Y-32951589D01*
X67193475Y-32708368D01*
X66986632Y-32501525D01*
X66804466Y-32379805D01*
X66921355Y-32310178D01*
X67137588Y-32115269D01*
X67311641Y-31881920D01*
X67436825Y-31619099D01*
X67481476Y-31471890D01*
X67360155Y-31242000D01*
X66167000Y-31242000D01*
X66167000Y-31262000D01*
X65913000Y-31262000D01*
X65913000Y-31242000D01*
X64719845Y-31242000D01*
X64598524Y-31471890D01*
X64643175Y-31619099D01*
X64768359Y-31881920D01*
X64942412Y-32115269D01*
X65158645Y-32310178D01*
X65275534Y-32379805D01*
X65093368Y-32501525D01*
X64886525Y-32708368D01*
X64724010Y-32951589D01*
X64612068Y-33221842D01*
X64555000Y-33508740D01*
X64555000Y-33801260D01*
X64612068Y-34088158D01*
X64724010Y-34358411D01*
X64886525Y-34601632D01*
X65093368Y-34808475D01*
X65267760Y-34925000D01*
X65093368Y-35041525D01*
X64886525Y-35248368D01*
X64724010Y-35491589D01*
X64612068Y-35761842D01*
X64555000Y-36048740D01*
X64555000Y-36341260D01*
X64598790Y-36561408D01*
X58671003Y-42489196D01*
X58641999Y-42512999D01*
X58586871Y-42580174D01*
X58547026Y-42628724D01*
X58507361Y-42702932D01*
X58476454Y-42760754D01*
X58432997Y-42904015D01*
X58422000Y-43015668D01*
X58422000Y-43015678D01*
X58418324Y-43053000D01*
X58422000Y-43090322D01*
X58422001Y-52017428D01*
X58083500Y-52017428D01*
X57910246Y-52034492D01*
X57743650Y-52085028D01*
X57590114Y-52167095D01*
X57455538Y-52277538D01*
X57345095Y-52412114D01*
X57263028Y-52565650D01*
X57212492Y-52732246D01*
X57195428Y-52905500D01*
X57195428Y-54155500D01*
X57212492Y-54328754D01*
X57263028Y-54495350D01*
X57345095Y-54648886D01*
X57442105Y-54767094D01*
X56581199Y-55628000D01*
X50710322Y-55628000D01*
X50672999Y-55624324D01*
X50635676Y-55628000D01*
X50635667Y-55628000D01*
X50524014Y-55638997D01*
X50380753Y-55682454D01*
X50248724Y-55753026D01*
X50132999Y-55847999D01*
X50109201Y-55876997D01*
X48891998Y-57094201D01*
X48863000Y-57117999D01*
X48839202Y-57146997D01*
X48839201Y-57146998D01*
X48768026Y-57233724D01*
X48697454Y-57365754D01*
X48674251Y-57442247D01*
X48653998Y-57509014D01*
X48653824Y-57510777D01*
X48639324Y-57658000D01*
X48643001Y-57695332D01*
X48643000Y-61216697D01*
X46033733Y-63825966D01*
X45930724Y-63881026D01*
X45928319Y-63883000D01*
X45852211Y-63883000D01*
X45808274Y-63839063D01*
X45638756Y-63725795D01*
X45450398Y-63647774D01*
X45250439Y-63608000D01*
X45046561Y-63608000D01*
X44846602Y-63647774D01*
X44658244Y-63725795D01*
X44488726Y-63839063D01*
X44344563Y-63983226D01*
X44231295Y-64152744D01*
X44153274Y-64341102D01*
X44113500Y-64541061D01*
X44113500Y-64744939D01*
X44153274Y-64944898D01*
X44231295Y-65133256D01*
X44344563Y-65302774D01*
X44488726Y-65446937D01*
X44658244Y-65560205D01*
X44846602Y-65638226D01*
X45046561Y-65678000D01*
X45250439Y-65678000D01*
X45450398Y-65638226D01*
X45573992Y-65587031D01*
X45573992Y-65633939D01*
X45613766Y-65833898D01*
X45691787Y-66022256D01*
X45805055Y-66191774D01*
X45949218Y-66335937D01*
X46118736Y-66449205D01*
X46307094Y-66527226D01*
X46507053Y-66567000D01*
X46710931Y-66567000D01*
X46910890Y-66527226D01*
X47099248Y-66449205D01*
X47268766Y-66335937D01*
X47412929Y-66191774D01*
X47526197Y-66022256D01*
X47604218Y-65833898D01*
X47612118Y-65794183D01*
X48723000Y-64683301D01*
X48723000Y-64845939D01*
X48762774Y-65045898D01*
X48840795Y-65234256D01*
X48954063Y-65403774D01*
X49098226Y-65547937D01*
X49267744Y-65661205D01*
X49397999Y-65715159D01*
X49398000Y-70524496D01*
X49277217Y-70500471D01*
X49073339Y-70500471D01*
X48873380Y-70540245D01*
X48685022Y-70618266D01*
X48515504Y-70731534D01*
X48471567Y-70775471D01*
X47155271Y-70775471D01*
X45944755Y-69564956D01*
X46015937Y-69493774D01*
X46129205Y-69324256D01*
X46207226Y-69135898D01*
X46247000Y-68935939D01*
X46247000Y-68732061D01*
X46207226Y-68532102D01*
X46129205Y-68343744D01*
X46015937Y-68174226D01*
X45871774Y-68030063D01*
X45702256Y-67916795D01*
X45513898Y-67838774D01*
X45313939Y-67799000D01*
X45251801Y-67799000D01*
X45013803Y-67561002D01*
X44990001Y-67531999D01*
X44874276Y-67437026D01*
X44742247Y-67366454D01*
X44598986Y-67322997D01*
X44487333Y-67312000D01*
X44487322Y-67312000D01*
X44450000Y-67308324D01*
X44412678Y-67312000D01*
X43748802Y-67312000D01*
X32314801Y-55878000D01*
X34399315Y-55878000D01*
X34502063Y-56031774D01*
X34646226Y-56175937D01*
X34815744Y-56289205D01*
X35004102Y-56367226D01*
X35204061Y-56407000D01*
X35407939Y-56407000D01*
X35607898Y-56367226D01*
X35796256Y-56289205D01*
X35965774Y-56175937D01*
X36109937Y-56031774D01*
X36223205Y-55862256D01*
X36301226Y-55673898D01*
X36341000Y-55473939D01*
X36341000Y-55270061D01*
X36301226Y-55070102D01*
X36223205Y-54881744D01*
X36109937Y-54712226D01*
X35965774Y-54568063D01*
X35796256Y-54454795D01*
X35607898Y-54376774D01*
X35407939Y-54337000D01*
X35204061Y-54337000D01*
X35095455Y-54358603D01*
X35089333Y-54358000D01*
X35089322Y-54358000D01*
X35052000Y-54354324D01*
X35014678Y-54358000D01*
X33547000Y-54358000D01*
X33547000Y-54254061D01*
X33507226Y-54054102D01*
X33429205Y-53865744D01*
X33315937Y-53696226D01*
X33171774Y-53552063D01*
X33002256Y-53438795D01*
X32813898Y-53360774D01*
X32613939Y-53321000D01*
X32551802Y-53321000D01*
X30478000Y-51247199D01*
X30478000Y-50710325D01*
X30481676Y-50673000D01*
X30478000Y-50635675D01*
X30478000Y-50635667D01*
X30467003Y-50524014D01*
X30423546Y-50380753D01*
X30352974Y-50248724D01*
X30258001Y-50132999D01*
X30229004Y-50109202D01*
X29381210Y-49261408D01*
X29425000Y-49041260D01*
X29425000Y-48748740D01*
X29367932Y-48461842D01*
X29255990Y-48191589D01*
X29093475Y-47948368D01*
X28886632Y-47741525D01*
X28712240Y-47625000D01*
X28886632Y-47508475D01*
X29093475Y-47301632D01*
X29200096Y-47142061D01*
X46717000Y-47142061D01*
X46717000Y-47345939D01*
X46756774Y-47545898D01*
X46834795Y-47734256D01*
X46948063Y-47903774D01*
X47092226Y-48047937D01*
X47261744Y-48161205D01*
X47450102Y-48239226D01*
X47650061Y-48279000D01*
X47853939Y-48279000D01*
X48053898Y-48239226D01*
X48242256Y-48161205D01*
X48411774Y-48047937D01*
X48555937Y-47903774D01*
X48669205Y-47734256D01*
X48747226Y-47545898D01*
X48787000Y-47345939D01*
X48787000Y-47142061D01*
X48747226Y-46942102D01*
X48669205Y-46753744D01*
X48637000Y-46705546D01*
X48637000Y-46590409D01*
X48647183Y-46602817D01*
X48680951Y-46630530D01*
X48680953Y-46630532D01*
X48781940Y-46713410D01*
X48781941Y-46713411D01*
X48935687Y-46795589D01*
X49102510Y-46846195D01*
X49232523Y-46859000D01*
X49232531Y-46859000D01*
X49276000Y-46863281D01*
X49319469Y-46859000D01*
X49753546Y-46859000D01*
X49801744Y-46891205D01*
X49990102Y-46969226D01*
X50190061Y-47009000D01*
X50393939Y-47009000D01*
X50593898Y-46969226D01*
X50782256Y-46891205D01*
X50951774Y-46777937D01*
X51095937Y-46633774D01*
X51209205Y-46464256D01*
X51287226Y-46275898D01*
X51327000Y-46075939D01*
X51327000Y-45872061D01*
X51287226Y-45672102D01*
X51209205Y-45483744D01*
X51095937Y-45314226D01*
X50951774Y-45170063D01*
X50782256Y-45056795D01*
X50593898Y-44978774D01*
X50393939Y-44939000D01*
X50190061Y-44939000D01*
X49990102Y-44978774D01*
X49801744Y-45056795D01*
X49753546Y-45089000D01*
X49642579Y-45089000D01*
X49399000Y-44845422D01*
X49399000Y-41686454D01*
X49431205Y-41638256D01*
X49509226Y-41449898D01*
X49549000Y-41249939D01*
X49549000Y-41046061D01*
X49509226Y-40846102D01*
X49431205Y-40657744D01*
X49317937Y-40488226D01*
X49173774Y-40344063D01*
X49004256Y-40230795D01*
X48815898Y-40152774D01*
X48615939Y-40113000D01*
X48412061Y-40113000D01*
X48212102Y-40152774D01*
X48023744Y-40230795D01*
X47854226Y-40344063D01*
X47710063Y-40488226D01*
X47596795Y-40657744D01*
X47518774Y-40846102D01*
X47479000Y-41046061D01*
X47479000Y-41249939D01*
X47518774Y-41449898D01*
X47596795Y-41638256D01*
X47629000Y-41686455D01*
X47629001Y-44845420D01*
X47156956Y-45317466D01*
X47123183Y-45345183D01*
X47012589Y-45479942D01*
X46930411Y-45633688D01*
X46879805Y-45800511D01*
X46867000Y-45930524D01*
X46867000Y-45930531D01*
X46862719Y-45974000D01*
X46867000Y-46017470D01*
X46867001Y-46705545D01*
X46834795Y-46753744D01*
X46756774Y-46942102D01*
X46717000Y-47142061D01*
X29200096Y-47142061D01*
X29255990Y-47058411D01*
X29367932Y-46788158D01*
X29425000Y-46501260D01*
X29425000Y-46208740D01*
X29367932Y-45921842D01*
X29255990Y-45651589D01*
X29093475Y-45408368D01*
X28886632Y-45201525D01*
X28712240Y-45085000D01*
X28886632Y-44968475D01*
X29093475Y-44761632D01*
X29255990Y-44518411D01*
X29367932Y-44248158D01*
X29425000Y-43961260D01*
X29425000Y-43668740D01*
X29367932Y-43381842D01*
X29255990Y-43111589D01*
X29093475Y-42868368D01*
X28886632Y-42661525D01*
X28712240Y-42545000D01*
X28886632Y-42428475D01*
X29093475Y-42221632D01*
X29255990Y-41978411D01*
X29367932Y-41708158D01*
X29425000Y-41421260D01*
X29425000Y-41128740D01*
X29367932Y-40841842D01*
X29255990Y-40571589D01*
X29093475Y-40328368D01*
X28886632Y-40121525D01*
X28712240Y-40005000D01*
X28886632Y-39888475D01*
X29093475Y-39681632D01*
X29255990Y-39438411D01*
X29367932Y-39168158D01*
X29425000Y-38881260D01*
X29425000Y-38760061D01*
X43161000Y-38760061D01*
X43161000Y-38963939D01*
X43200774Y-39163898D01*
X43278795Y-39352256D01*
X43392063Y-39521774D01*
X43536226Y-39665937D01*
X43705744Y-39779205D01*
X43894102Y-39857226D01*
X43950956Y-39868535D01*
X44301470Y-40219049D01*
X44329183Y-40252817D01*
X44362951Y-40280530D01*
X44362953Y-40280532D01*
X44463941Y-40363411D01*
X44617687Y-40445589D01*
X44784510Y-40496195D01*
X44914523Y-40509000D01*
X44914531Y-40509000D01*
X44958000Y-40513281D01*
X45001469Y-40509000D01*
X46197546Y-40509000D01*
X46245744Y-40541205D01*
X46434102Y-40619226D01*
X46634061Y-40659000D01*
X46837939Y-40659000D01*
X47037898Y-40619226D01*
X47226256Y-40541205D01*
X47395774Y-40427937D01*
X47539937Y-40283774D01*
X47653205Y-40114256D01*
X47731226Y-39925898D01*
X47771000Y-39725939D01*
X47771000Y-39522061D01*
X47731226Y-39322102D01*
X47653205Y-39133744D01*
X47539937Y-38964226D01*
X47395774Y-38820063D01*
X47226256Y-38706795D01*
X47037898Y-38628774D01*
X46837939Y-38589000D01*
X46634061Y-38589000D01*
X46434102Y-38628774D01*
X46245744Y-38706795D01*
X46197546Y-38739000D01*
X45324579Y-38739000D01*
X45202535Y-38616956D01*
X45191226Y-38560102D01*
X45113205Y-38371744D01*
X44999937Y-38202226D01*
X44855774Y-38058063D01*
X44686256Y-37944795D01*
X44497898Y-37866774D01*
X44297939Y-37827000D01*
X44094061Y-37827000D01*
X43894102Y-37866774D01*
X43705744Y-37944795D01*
X43536226Y-38058063D01*
X43392063Y-38202226D01*
X43278795Y-38371744D01*
X43200774Y-38560102D01*
X43161000Y-38760061D01*
X29425000Y-38760061D01*
X29425000Y-38588740D01*
X29367932Y-38301842D01*
X29255990Y-38031589D01*
X29093475Y-37788368D01*
X28886632Y-37581525D01*
X28712240Y-37465000D01*
X28886632Y-37348475D01*
X29093475Y-37141632D01*
X29255990Y-36898411D01*
X29367932Y-36628158D01*
X29425000Y-36341260D01*
X29425000Y-36048740D01*
X29367932Y-35761842D01*
X29255990Y-35491589D01*
X29093475Y-35248368D01*
X28886632Y-35041525D01*
X28712240Y-34925000D01*
X28886632Y-34808475D01*
X29093475Y-34601632D01*
X29255990Y-34358411D01*
X29367932Y-34088158D01*
X29425000Y-33801260D01*
X29425000Y-33508740D01*
X29367932Y-33221842D01*
X29255990Y-32951589D01*
X29093475Y-32708368D01*
X28886632Y-32501525D01*
X28704466Y-32379805D01*
X28821355Y-32310178D01*
X29037588Y-32115269D01*
X29211641Y-31881920D01*
X29336825Y-31619099D01*
X29381476Y-31471890D01*
X29260155Y-31242000D01*
X28067000Y-31242000D01*
X28067000Y-31262000D01*
X27813000Y-31262000D01*
X27813000Y-31242000D01*
X26619845Y-31242000D01*
X26498524Y-31471890D01*
X26543175Y-31619099D01*
X26668359Y-31881920D01*
X26842412Y-32115269D01*
X27058645Y-32310178D01*
X27175534Y-32379805D01*
X26993368Y-32501525D01*
X26786525Y-32708368D01*
X26624010Y-32951589D01*
X26512068Y-33221842D01*
X26455000Y-33508740D01*
X26455000Y-33801260D01*
X26512068Y-34088158D01*
X26624010Y-34358411D01*
X26786525Y-34601632D01*
X26993368Y-34808475D01*
X27167760Y-34925000D01*
X26993368Y-35041525D01*
X26786525Y-35248368D01*
X26624010Y-35491589D01*
X26512068Y-35761842D01*
X26455000Y-36048740D01*
X26455000Y-36341260D01*
X26512068Y-36628158D01*
X26624010Y-36898411D01*
X26786525Y-37141632D01*
X26993368Y-37348475D01*
X27167760Y-37465000D01*
X26993368Y-37581525D01*
X26786525Y-37788368D01*
X26624010Y-38031589D01*
X26512068Y-38301842D01*
X26455000Y-38588740D01*
X26455000Y-38881260D01*
X26512068Y-39168158D01*
X26624010Y-39438411D01*
X26786525Y-39681632D01*
X26993368Y-39888475D01*
X27167760Y-40005000D01*
X26993368Y-40121525D01*
X26786525Y-40328368D01*
X26624010Y-40571589D01*
X26512068Y-40841842D01*
X26455000Y-41128740D01*
X26455000Y-41421260D01*
X26512068Y-41708158D01*
X26624010Y-41978411D01*
X26786525Y-42221632D01*
X26993368Y-42428475D01*
X27167760Y-42545000D01*
X26993368Y-42661525D01*
X26786525Y-42868368D01*
X26624010Y-43111589D01*
X26512068Y-43381842D01*
X26455000Y-43668740D01*
X26455000Y-43961260D01*
X26512068Y-44248158D01*
X26624010Y-44518411D01*
X26786525Y-44761632D01*
X26993368Y-44968475D01*
X27167760Y-45085000D01*
X26993368Y-45201525D01*
X26786525Y-45408368D01*
X26624010Y-45651589D01*
X26512068Y-45921842D01*
X26455000Y-46208740D01*
X26455000Y-46501260D01*
X26512068Y-46788158D01*
X26624010Y-47058411D01*
X26786525Y-47301632D01*
X26993368Y-47508475D01*
X27167760Y-47625000D01*
X26993368Y-47741525D01*
X26786525Y-47948368D01*
X26624010Y-48191589D01*
X26512068Y-48461842D01*
X26455000Y-48748740D01*
X26455000Y-49041260D01*
X26512068Y-49328158D01*
X26624010Y-49598411D01*
X26786525Y-49841632D01*
X26993368Y-50048475D01*
X27167760Y-50165000D01*
X26993368Y-50281525D01*
X26786525Y-50488368D01*
X26624010Y-50731589D01*
X26512068Y-51001842D01*
X26455000Y-51288740D01*
X26455000Y-51581260D01*
X26512068Y-51868158D01*
X26624010Y-52138411D01*
X26786525Y-52381632D01*
X26993368Y-52588475D01*
X27167760Y-52705000D01*
X26993368Y-52821525D01*
X26786525Y-53028368D01*
X26624010Y-53271589D01*
X26512068Y-53541842D01*
X26455000Y-53828740D01*
X26455000Y-54121260D01*
X26512068Y-54408158D01*
X26624010Y-54678411D01*
X26786525Y-54921632D01*
X26993368Y-55128475D01*
X27167760Y-55245000D01*
X26993368Y-55361525D01*
X26786525Y-55568368D01*
X26624010Y-55811589D01*
X26512068Y-56081842D01*
X26455000Y-56368740D01*
X26455000Y-56661260D01*
X26512068Y-56948158D01*
X26624010Y-57218411D01*
X26786525Y-57461632D01*
X26993368Y-57668475D01*
X27167760Y-57785000D01*
X26993368Y-57901525D01*
X26786525Y-58108368D01*
X26624010Y-58351589D01*
X26512068Y-58621842D01*
X26455000Y-58908740D01*
X26455000Y-59201260D01*
X26512068Y-59488158D01*
X26624010Y-59758411D01*
X26786525Y-60001632D01*
X26993368Y-60208475D01*
X27167760Y-60325000D01*
X26993368Y-60441525D01*
X26786525Y-60648368D01*
X26624010Y-60891589D01*
X26512068Y-61161842D01*
X26455000Y-61448740D01*
X26455000Y-61741260D01*
X26512068Y-62028158D01*
X26624010Y-62298411D01*
X26786525Y-62541632D01*
X26993368Y-62748475D01*
X27167760Y-62865000D01*
X26993368Y-62981525D01*
X26786525Y-63188368D01*
X26624010Y-63431589D01*
X26512068Y-63701842D01*
X26455000Y-63988740D01*
X26455000Y-64281260D01*
X26512068Y-64568158D01*
X26624010Y-64838411D01*
X26786525Y-65081632D01*
X26993368Y-65288475D01*
X27167760Y-65405000D01*
X26993368Y-65521525D01*
X26786525Y-65728368D01*
X26624010Y-65971589D01*
X26512068Y-66241842D01*
X26455000Y-66528740D01*
X26455000Y-66821260D01*
X26512068Y-67108158D01*
X26624010Y-67378411D01*
X26786525Y-67621632D01*
X26993368Y-67828475D01*
X27167760Y-67945000D01*
X26993368Y-68061525D01*
X26786525Y-68268368D01*
X26624010Y-68511589D01*
X26512068Y-68781842D01*
X26455000Y-69068740D01*
X26455000Y-69361260D01*
X26512068Y-69648158D01*
X26624010Y-69918411D01*
X26786525Y-70161632D01*
X26993368Y-70368475D01*
X27167760Y-70485000D01*
X26993368Y-70601525D01*
X26786525Y-70808368D01*
X26624010Y-71051589D01*
X26512068Y-71321842D01*
X26455000Y-71608740D01*
X26455000Y-71901260D01*
X26512068Y-72188158D01*
X26624010Y-72458411D01*
X26786525Y-72701632D01*
X26993368Y-72908475D01*
X27167760Y-73025000D01*
X26993368Y-73141525D01*
X26786525Y-73348368D01*
X26624010Y-73591589D01*
X26512068Y-73861842D01*
X26455000Y-74148740D01*
X26455000Y-74441260D01*
X26512068Y-74728158D01*
X26624010Y-74998411D01*
X26786525Y-75241632D01*
X26993368Y-75448475D01*
X27167760Y-75565000D01*
X26993368Y-75681525D01*
X26786525Y-75888368D01*
X26624010Y-76131589D01*
X26512068Y-76401842D01*
X26455000Y-76688740D01*
X26455000Y-76981260D01*
X26512068Y-77268158D01*
X26624010Y-77538411D01*
X26786525Y-77781632D01*
X26993368Y-77988475D01*
X27236589Y-78150990D01*
X27506842Y-78262932D01*
X27793740Y-78320000D01*
X28086260Y-78320000D01*
X28373158Y-78262932D01*
X28643411Y-78150990D01*
X28886632Y-77988475D01*
X29093475Y-77781632D01*
X29255990Y-77538411D01*
X29367932Y-77268158D01*
X29425000Y-76981260D01*
X29425000Y-76688740D01*
X29381210Y-76468592D01*
X29869930Y-75979872D01*
X30975500Y-75979872D01*
X30975500Y-76420128D01*
X31061390Y-76851925D01*
X31229869Y-77258669D01*
X31474462Y-77624729D01*
X31785771Y-77936038D01*
X32151831Y-78180631D01*
X32558575Y-78349110D01*
X32990372Y-78435000D01*
X33430628Y-78435000D01*
X33862425Y-78349110D01*
X34269169Y-78180631D01*
X34635229Y-77936038D01*
X34946538Y-77624729D01*
X35191131Y-77258669D01*
X35359610Y-76851925D01*
X35445500Y-76420128D01*
X35445500Y-75979872D01*
X35359610Y-75548075D01*
X35191131Y-75141331D01*
X34946538Y-74775271D01*
X34635229Y-74463962D01*
X34269169Y-74219369D01*
X33862425Y-74050890D01*
X33430628Y-73965000D01*
X32990372Y-73965000D01*
X32558575Y-74050890D01*
X32151831Y-74219369D01*
X31785771Y-74463962D01*
X31474462Y-74775271D01*
X31229869Y-75141331D01*
X31061390Y-75548075D01*
X30975500Y-75979872D01*
X29869930Y-75979872D01*
X30229004Y-75620798D01*
X30258001Y-75597001D01*
X30352974Y-75481276D01*
X30423546Y-75349247D01*
X30467003Y-75205986D01*
X30478000Y-75094333D01*
X30478000Y-75094325D01*
X30481676Y-75057000D01*
X30478000Y-75019675D01*
X30478000Y-74736801D01*
X32064802Y-73150000D01*
X34483199Y-73150000D01*
X36514500Y-75181302D01*
X36514501Y-76734168D01*
X36510824Y-76771500D01*
X36525498Y-76920485D01*
X36568954Y-77063746D01*
X36639526Y-77195776D01*
X36691142Y-77258669D01*
X36734500Y-77311501D01*
X36763498Y-77335299D01*
X37039791Y-77611592D01*
X36996000Y-77831740D01*
X36996000Y-78124260D01*
X37053068Y-78411158D01*
X37165010Y-78681411D01*
X37327525Y-78924632D01*
X37534368Y-79131475D01*
X37777589Y-79293990D01*
X37852454Y-79325000D01*
X26953737Y-79325000D01*
X26085000Y-78456264D01*
X26085000Y-27725000D01*
X26451928Y-27725000D01*
X26451928Y-29425000D01*
X26464188Y-29549482D01*
X26500498Y-29669180D01*
X26559463Y-29779494D01*
X26638815Y-29876185D01*
X26735506Y-29955537D01*
X26845820Y-30014502D01*
X26926466Y-30038966D01*
X26842412Y-30114731D01*
X26668359Y-30348080D01*
X26543175Y-30610901D01*
X26498524Y-30758110D01*
X26619845Y-30988000D01*
X27813000Y-30988000D01*
X27813000Y-30968000D01*
X28067000Y-30968000D01*
X28067000Y-30988000D01*
X29260155Y-30988000D01*
X29381476Y-30758110D01*
X29336825Y-30610901D01*
X29211641Y-30348080D01*
X29037588Y-30114731D01*
X28953534Y-30038966D01*
X29034180Y-30014502D01*
X29144494Y-29955537D01*
X29241185Y-29876185D01*
X29320537Y-29779494D01*
X29379502Y-29669180D01*
X29415812Y-29549482D01*
X29428072Y-29425000D01*
X29428072Y-27950789D01*
X30915540Y-27950789D01*
X30964237Y-28353641D01*
X31090592Y-28739252D01*
X31238868Y-29016658D01*
X31546750Y-29163645D01*
X32805395Y-27905000D01*
X31546750Y-26646355D01*
X31238868Y-26793342D01*
X31055545Y-27155356D01*
X30946371Y-27546178D01*
X30915540Y-27950789D01*
X29428072Y-27950789D01*
X29428072Y-27725000D01*
X29415812Y-27600518D01*
X29379502Y-27480820D01*
X29320537Y-27370506D01*
X29241185Y-27273815D01*
X29144494Y-27194463D01*
X29034180Y-27135498D01*
X28914482Y-27099188D01*
X28790000Y-27086928D01*
X27090000Y-27086928D01*
X26965518Y-27099188D01*
X26845820Y-27135498D01*
X26735506Y-27194463D01*
X26638815Y-27273815D01*
X26559463Y-27370506D01*
X26500498Y-27480820D01*
X26464188Y-27600518D01*
X26451928Y-27725000D01*
X26085000Y-27725000D01*
X26085000Y-26953736D01*
X26953737Y-26085000D01*
X32011540Y-26085000D01*
X31873342Y-26158868D01*
G37*
%TD.AperFunction*%
D19*
X50923342Y-26158868D02*
X50776355Y-26466750D01*
X52035000Y-27725395D01*
X53293645Y-26466750D01*
X53146658Y-26158868D01*
X53000788Y-26085000D01*
X56200921Y-26085000D01*
X55871827Y-26304894D01*
X55584894Y-26591827D01*
X55359452Y-26929224D01*
X55204165Y-27304120D01*
X55125000Y-27702108D01*
X55125000Y-28107892D01*
X55204165Y-28505880D01*
X55321186Y-28788393D01*
X55145250Y-28715518D01*
X54790732Y-28645000D01*
X54429268Y-28645000D01*
X54074750Y-28715518D01*
X53896170Y-28789488D01*
X53964455Y-28654644D01*
X54073629Y-28263822D01*
X54104460Y-27859211D01*
X54055763Y-27456359D01*
X53929408Y-27070748D01*
X53781132Y-26793342D01*
X53473250Y-26646355D01*
X52214605Y-27905000D01*
X52228748Y-27919143D01*
X52049143Y-28098748D01*
X52035000Y-28084605D01*
X50776355Y-29343250D01*
X50923342Y-29651132D01*
X51285356Y-29834455D01*
X51676178Y-29943629D01*
X52080789Y-29974460D01*
X52483641Y-29925763D01*
X52869252Y-29799408D01*
X52916091Y-29774372D01*
X52845518Y-29944750D01*
X52775000Y-30299268D01*
X52775000Y-30660732D01*
X52845518Y-31015250D01*
X52918393Y-31191186D01*
X52635880Y-31074165D01*
X52237892Y-30995000D01*
X51832108Y-30995000D01*
X51434120Y-31074165D01*
X51059224Y-31229452D01*
X50721827Y-31454894D01*
X50434894Y-31741827D01*
X50209452Y-32079224D01*
X50054165Y-32454120D01*
X49975000Y-32852108D01*
X49975000Y-33257892D01*
X50054165Y-33655880D01*
X50209452Y-34030776D01*
X50434894Y-34368173D01*
X50612721Y-34546000D01*
X39368461Y-34546000D01*
X39393645Y-34493250D01*
X38135000Y-33234605D01*
X36876355Y-34493250D01*
X36901539Y-34546000D01*
X36636802Y-34546000D01*
X36320000Y-34229199D01*
X36320000Y-34037815D01*
X36388868Y-34166658D01*
X36696750Y-34313645D01*
X37955395Y-33055000D01*
X38314605Y-33055000D01*
X39573250Y-34313645D01*
X39881132Y-34166658D01*
X40064455Y-33804644D01*
X40173629Y-33413822D01*
X40204460Y-33009211D01*
X40155763Y-32606359D01*
X40029408Y-32220748D01*
X39881132Y-31943342D01*
X39573250Y-31796355D01*
X38314605Y-33055000D01*
X37955395Y-33055000D01*
X37941253Y-33040858D01*
X38120858Y-32861253D01*
X38135000Y-32875395D01*
X39393645Y-31616750D01*
X39246658Y-31308868D01*
X38884644Y-31125545D01*
X38493822Y-31016371D01*
X38089211Y-30985540D01*
X37686359Y-31034237D01*
X37300748Y-31160592D01*
X37253909Y-31185628D01*
X37324482Y-31015250D01*
X37395000Y-30660732D01*
X37395000Y-30299268D01*
X37324482Y-29944750D01*
X37251607Y-29768814D01*
X37534120Y-29885835D01*
X37932108Y-29965000D01*
X38337892Y-29965000D01*
X38735880Y-29885835D01*
X39110776Y-29730548D01*
X39448173Y-29505106D01*
X39735106Y-29218173D01*
X39887652Y-28989872D01*
X42977000Y-28989872D01*
X42977000Y-29430128D01*
X43062890Y-29861925D01*
X43231369Y-30268669D01*
X43475962Y-30634729D01*
X43787271Y-30946038D01*
X44153331Y-31190631D01*
X44560075Y-31359110D01*
X44991872Y-31445000D01*
X45432128Y-31445000D01*
X45863925Y-31359110D01*
X46270669Y-31190631D01*
X46636729Y-30946038D01*
X46948038Y-30634729D01*
X47192631Y-30268669D01*
X47361110Y-29861925D01*
X47447000Y-29430128D01*
X47447000Y-28989872D01*
X47361110Y-28558075D01*
X47192631Y-28151331D01*
X47058634Y-27950789D01*
X49965540Y-27950789D01*
X50014237Y-28353641D01*
X50140592Y-28739252D01*
X50288868Y-29016658D01*
X50596750Y-29163645D01*
X51855395Y-27905000D01*
X50596750Y-26646355D01*
X50288868Y-26793342D01*
X50105545Y-27155356D01*
X49996371Y-27546178D01*
X49965540Y-27950789D01*
X47058634Y-27950789D01*
X46948038Y-27785271D01*
X46636729Y-27473962D01*
X46270669Y-27229369D01*
X45863925Y-27060890D01*
X45432128Y-26975000D01*
X44991872Y-26975000D01*
X44560075Y-27060890D01*
X44153331Y-27229369D01*
X43787271Y-27473962D01*
X43475962Y-27785271D01*
X43231369Y-28151331D01*
X43062890Y-28558075D01*
X42977000Y-28989872D01*
X39887652Y-28989872D01*
X39960548Y-28880776D01*
X40115835Y-28505880D01*
X40195000Y-28107892D01*
X40195000Y-27702108D01*
X40115835Y-27304120D01*
X39960548Y-26929224D01*
X39735106Y-26591827D01*
X39448173Y-26304894D01*
X39119079Y-26085000D01*
X51061540Y-26085000D01*
X50923342Y-26158868D01*
%TA.AperFunction,Conductor*%
D20*
G36*
X50923342Y-26158868D02*
G01*
X50776355Y-26466750D01*
X52035000Y-27725395D01*
X53293645Y-26466750D01*
X53146658Y-26158868D01*
X53000788Y-26085000D01*
X56200921Y-26085000D01*
X55871827Y-26304894D01*
X55584894Y-26591827D01*
X55359452Y-26929224D01*
X55204165Y-27304120D01*
X55125000Y-27702108D01*
X55125000Y-28107892D01*
X55204165Y-28505880D01*
X55321186Y-28788393D01*
X55145250Y-28715518D01*
X54790732Y-28645000D01*
X54429268Y-28645000D01*
X54074750Y-28715518D01*
X53896170Y-28789488D01*
X53964455Y-28654644D01*
X54073629Y-28263822D01*
X54104460Y-27859211D01*
X54055763Y-27456359D01*
X53929408Y-27070748D01*
X53781132Y-26793342D01*
X53473250Y-26646355D01*
X52214605Y-27905000D01*
X52228748Y-27919143D01*
X52049143Y-28098748D01*
X52035000Y-28084605D01*
X50776355Y-29343250D01*
X50923342Y-29651132D01*
X51285356Y-29834455D01*
X51676178Y-29943629D01*
X52080789Y-29974460D01*
X52483641Y-29925763D01*
X52869252Y-29799408D01*
X52916091Y-29774372D01*
X52845518Y-29944750D01*
X52775000Y-30299268D01*
X52775000Y-30660732D01*
X52845518Y-31015250D01*
X52918393Y-31191186D01*
X52635880Y-31074165D01*
X52237892Y-30995000D01*
X51832108Y-30995000D01*
X51434120Y-31074165D01*
X51059224Y-31229452D01*
X50721827Y-31454894D01*
X50434894Y-31741827D01*
X50209452Y-32079224D01*
X50054165Y-32454120D01*
X49975000Y-32852108D01*
X49975000Y-33257892D01*
X50054165Y-33655880D01*
X50209452Y-34030776D01*
X50434894Y-34368173D01*
X50612721Y-34546000D01*
X39368461Y-34546000D01*
X39393645Y-34493250D01*
X38135000Y-33234605D01*
X36876355Y-34493250D01*
X36901539Y-34546000D01*
X36636802Y-34546000D01*
X36320000Y-34229199D01*
X36320000Y-34037815D01*
X36388868Y-34166658D01*
X36696750Y-34313645D01*
X37955395Y-33055000D01*
X38314605Y-33055000D01*
X39573250Y-34313645D01*
X39881132Y-34166658D01*
X40064455Y-33804644D01*
X40173629Y-33413822D01*
X40204460Y-33009211D01*
X40155763Y-32606359D01*
X40029408Y-32220748D01*
X39881132Y-31943342D01*
X39573250Y-31796355D01*
X38314605Y-33055000D01*
X37955395Y-33055000D01*
X37941253Y-33040858D01*
X38120858Y-32861253D01*
X38135000Y-32875395D01*
X39393645Y-31616750D01*
X39246658Y-31308868D01*
X38884644Y-31125545D01*
X38493822Y-31016371D01*
X38089211Y-30985540D01*
X37686359Y-31034237D01*
X37300748Y-31160592D01*
X37253909Y-31185628D01*
X37324482Y-31015250D01*
X37395000Y-30660732D01*
X37395000Y-30299268D01*
X37324482Y-29944750D01*
X37251607Y-29768814D01*
X37534120Y-29885835D01*
X37932108Y-29965000D01*
X38337892Y-29965000D01*
X38735880Y-29885835D01*
X39110776Y-29730548D01*
X39448173Y-29505106D01*
X39735106Y-29218173D01*
X39887652Y-28989872D01*
X42977000Y-28989872D01*
X42977000Y-29430128D01*
X43062890Y-29861925D01*
X43231369Y-30268669D01*
X43475962Y-30634729D01*
X43787271Y-30946038D01*
X44153331Y-31190631D01*
X44560075Y-31359110D01*
X44991872Y-31445000D01*
X45432128Y-31445000D01*
X45863925Y-31359110D01*
X46270669Y-31190631D01*
X46636729Y-30946038D01*
X46948038Y-30634729D01*
X47192631Y-30268669D01*
X47361110Y-29861925D01*
X47447000Y-29430128D01*
X47447000Y-28989872D01*
X47361110Y-28558075D01*
X47192631Y-28151331D01*
X47058634Y-27950789D01*
X49965540Y-27950789D01*
X50014237Y-28353641D01*
X50140592Y-28739252D01*
X50288868Y-29016658D01*
X50596750Y-29163645D01*
X51855395Y-27905000D01*
X50596750Y-26646355D01*
X50288868Y-26793342D01*
X50105545Y-27155356D01*
X49996371Y-27546178D01*
X49965540Y-27950789D01*
X47058634Y-27950789D01*
X46948038Y-27785271D01*
X46636729Y-27473962D01*
X46270669Y-27229369D01*
X45863925Y-27060890D01*
X45432128Y-26975000D01*
X44991872Y-26975000D01*
X44560075Y-27060890D01*
X44153331Y-27229369D01*
X43787271Y-27473962D01*
X43475962Y-27785271D01*
X43231369Y-28151331D01*
X43062890Y-28558075D01*
X42977000Y-28989872D01*
X39887652Y-28989872D01*
X39960548Y-28880776D01*
X40115835Y-28505880D01*
X40195000Y-28107892D01*
X40195000Y-27702108D01*
X40115835Y-27304120D01*
X39960548Y-26929224D01*
X39735106Y-26591827D01*
X39448173Y-26304894D01*
X39119079Y-26085000D01*
X51061540Y-26085000D01*
X50923342Y-26158868D01*
G37*
%TD.AperFunction*%
%TD*%
M02*
