%TF.GenerationSoftware,KiCad,Pcbnew,(5.1.9)-1*%
%TF.CreationDate,2021-08-30T10:52:12+01:00*%
%TF.ProjectId,projecto1,70726f6a-6563-4746-9f31-2e6b69636164,1.5*%
%TF.SameCoordinates,Original*%
%TF.FileFunction,Paste,Top*%
%TF.FilePolarity,Positive*%
%FSLAX46Y46*%
G04 Gerber Fmt 4.6, Leading zero omitted, Abs format (unit mm)*
G04 Created by KiCad (PCBNEW (5.1.9)-1) date 2021-08-30 10:52:12*
%MOMM*%
%LPD*%
G01*
G04 APERTURE LIST*
%ADD10R,2.700000X3.000000*%
%ADD11R,0.300000X1.200000*%
G04 APERTURE END LIST*
D10*
%TO.C,J2*%
X42310000Y-75297000D03*
X51670000Y-75297000D03*
D11*
X44240000Y-77157000D03*
X44740000Y-77157000D03*
X45240000Y-77157000D03*
X45740000Y-77157000D03*
X46240000Y-77157000D03*
X46740000Y-77157000D03*
X47240000Y-77157000D03*
X47740000Y-77157000D03*
X48240000Y-77157000D03*
X48740000Y-77157000D03*
X49240000Y-77157000D03*
X49740000Y-77157000D03*
%TD*%
%TO.C,R5*%
G36*
G01*
X61008500Y-57711500D02*
X61008500Y-56461500D01*
G75*
G02*
X61258500Y-56211500I250000J0D01*
G01*
X62058500Y-56211500D01*
G75*
G02*
X62308500Y-56461500I0J-250000D01*
G01*
X62308500Y-57711500D01*
G75*
G02*
X62058500Y-57961500I-250000J0D01*
G01*
X61258500Y-57961500D01*
G75*
G02*
X61008500Y-57711500I0J250000D01*
G01*
G37*
G36*
G01*
X57908500Y-57711500D02*
X57908500Y-56461500D01*
G75*
G02*
X58158500Y-56211500I250000J0D01*
G01*
X58958500Y-56211500D01*
G75*
G02*
X59208500Y-56461500I0J-250000D01*
G01*
X59208500Y-57711500D01*
G75*
G02*
X58958500Y-57961500I-250000J0D01*
G01*
X58158500Y-57961500D01*
G75*
G02*
X57908500Y-57711500I0J250000D01*
G01*
G37*
%TD*%
%TO.C,R4*%
G36*
G01*
X60933500Y-54155500D02*
X60933500Y-52905500D01*
G75*
G02*
X61183500Y-52655500I250000J0D01*
G01*
X61983500Y-52655500D01*
G75*
G02*
X62233500Y-52905500I0J-250000D01*
G01*
X62233500Y-54155500D01*
G75*
G02*
X61983500Y-54405500I-250000J0D01*
G01*
X61183500Y-54405500D01*
G75*
G02*
X60933500Y-54155500I0J250000D01*
G01*
G37*
G36*
G01*
X57833500Y-54155500D02*
X57833500Y-52905500D01*
G75*
G02*
X58083500Y-52655500I250000J0D01*
G01*
X58883500Y-52655500D01*
G75*
G02*
X59133500Y-52905500I0J-250000D01*
G01*
X59133500Y-54155500D01*
G75*
G02*
X58883500Y-54405500I-250000J0D01*
G01*
X58083500Y-54405500D01*
G75*
G02*
X57833500Y-54155500I0J250000D01*
G01*
G37*
%TD*%
M02*
