%TF.GenerationSoftware,KiCad,Pcbnew,(5.1.9)-1*%
%TF.CreationDate,2021-08-30T10:52:12+01:00*%
%TF.ProjectId,projecto1,70726f6a-6563-4746-9f31-2e6b69636164,1.5*%
%TF.SameCoordinates,Original*%
%TF.FileFunction,Paste,Bot*%
%TF.FilePolarity,Positive*%
%FSLAX46Y46*%
G04 Gerber Fmt 4.6, Leading zero omitted, Abs format (unit mm)*
G04 Created by KiCad (PCBNEW (5.1.9)-1) date 2021-08-30 10:52:12*
%MOMM*%
%LPD*%
G01*
G04 APERTURE LIST*
%ADD10R,1.060000X0.650000*%
%ADD11R,0.500000X1.290000*%
%ADD12R,1.400000X0.300000*%
%ADD13R,0.650000X1.250000*%
%ADD14R,1.500000X0.650000*%
%ADD15R,1.250000X0.650000*%
%ADD16R,0.650000X1.925000*%
G04 APERTURE END LIST*
%TO.C,R6*%
G36*
G01*
X31946001Y-37091000D02*
X31045999Y-37091000D01*
G75*
G02*
X30796000Y-36841001I0J249999D01*
G01*
X30796000Y-36140999D01*
G75*
G02*
X31045999Y-35891000I249999J0D01*
G01*
X31946001Y-35891000D01*
G75*
G02*
X32196000Y-36140999I0J-249999D01*
G01*
X32196000Y-36841001D01*
G75*
G02*
X31946001Y-37091000I-249999J0D01*
G01*
G37*
G36*
G01*
X31946001Y-39091000D02*
X31045999Y-39091000D01*
G75*
G02*
X30796000Y-38841001I0J249999D01*
G01*
X30796000Y-38140999D01*
G75*
G02*
X31045999Y-37891000I249999J0D01*
G01*
X31946001Y-37891000D01*
G75*
G02*
X32196000Y-38140999I0J-249999D01*
G01*
X32196000Y-38841001D01*
G75*
G02*
X31946001Y-39091000I-249999J0D01*
G01*
G37*
%TD*%
D10*
%TO.C,U2*%
X43518000Y-65532000D03*
X43518000Y-66482000D03*
X43518000Y-64582000D03*
X41318000Y-64582000D03*
X41318000Y-65532000D03*
X41318000Y-66482000D03*
%TD*%
D11*
%TO.C,U1*%
X55118000Y-72538000D03*
X55768000Y-70718000D03*
X54468000Y-70718000D03*
%TD*%
%TO.C,R3*%
G36*
G01*
X40014999Y-50684000D02*
X41265001Y-50684000D01*
G75*
G02*
X41515000Y-50933999I0J-249999D01*
G01*
X41515000Y-51734001D01*
G75*
G02*
X41265001Y-51984000I-249999J0D01*
G01*
X40014999Y-51984000D01*
G75*
G02*
X39765000Y-51734001I0J249999D01*
G01*
X39765000Y-50933999D01*
G75*
G02*
X40014999Y-50684000I249999J0D01*
G01*
G37*
G36*
G01*
X40014999Y-47584000D02*
X41265001Y-47584000D01*
G75*
G02*
X41515000Y-47833999I0J-249999D01*
G01*
X41515000Y-48634001D01*
G75*
G02*
X41265001Y-48884000I-249999J0D01*
G01*
X40014999Y-48884000D01*
G75*
G02*
X39765000Y-48634001I0J249999D01*
G01*
X39765000Y-47833999D01*
G75*
G02*
X40014999Y-47584000I249999J0D01*
G01*
G37*
%TD*%
%TO.C,R2*%
G36*
G01*
X40014999Y-56018000D02*
X41265001Y-56018000D01*
G75*
G02*
X41515000Y-56267999I0J-249999D01*
G01*
X41515000Y-57068001D01*
G75*
G02*
X41265001Y-57318000I-249999J0D01*
G01*
X40014999Y-57318000D01*
G75*
G02*
X39765000Y-57068001I0J249999D01*
G01*
X39765000Y-56267999D01*
G75*
G02*
X40014999Y-56018000I249999J0D01*
G01*
G37*
G36*
G01*
X40014999Y-52918000D02*
X41265001Y-52918000D01*
G75*
G02*
X41515000Y-53167999I0J-249999D01*
G01*
X41515000Y-53968001D01*
G75*
G02*
X41265001Y-54218000I-249999J0D01*
G01*
X40014999Y-54218000D01*
G75*
G02*
X39765000Y-53968001I0J249999D01*
G01*
X39765000Y-53167999D01*
G75*
G02*
X40014999Y-52918000I249999J0D01*
G01*
G37*
%TD*%
%TO.C,R1*%
G36*
G01*
X55743001Y-65394000D02*
X54492999Y-65394000D01*
G75*
G02*
X54243000Y-65144001I0J249999D01*
G01*
X54243000Y-64343999D01*
G75*
G02*
X54492999Y-64094000I249999J0D01*
G01*
X55743001Y-64094000D01*
G75*
G02*
X55993000Y-64343999I0J-249999D01*
G01*
X55993000Y-65144001D01*
G75*
G02*
X55743001Y-65394000I-249999J0D01*
G01*
G37*
G36*
G01*
X55743001Y-68494000D02*
X54492999Y-68494000D01*
G75*
G02*
X54243000Y-68244001I0J249999D01*
G01*
X54243000Y-67443999D01*
G75*
G02*
X54492999Y-67194000I249999J0D01*
G01*
X55743001Y-67194000D01*
G75*
G02*
X55993000Y-67443999I0J-249999D01*
G01*
X55993000Y-68244001D01*
G75*
G02*
X55743001Y-68494000I-249999J0D01*
G01*
G37*
%TD*%
D12*
%TO.C,IC5*%
X32725000Y-51324000D03*
X32725000Y-51824000D03*
X32725000Y-52324000D03*
X32725000Y-52824000D03*
X32725000Y-53324000D03*
X37125000Y-53324000D03*
X37125000Y-52824000D03*
X37125000Y-52324000D03*
X37125000Y-51824000D03*
X37125000Y-51324000D03*
%TD*%
D13*
%TO.C,IC4*%
X35052000Y-38955000D03*
X34102000Y-41055000D03*
X36002000Y-41055000D03*
%TD*%
D14*
%TO.C,IC3*%
X32352000Y-63881000D03*
X32352000Y-65151000D03*
X32352000Y-66421000D03*
X32352000Y-67691000D03*
X37752000Y-67691000D03*
X37752000Y-66421000D03*
X37752000Y-65151000D03*
X37752000Y-63881000D03*
%TD*%
D15*
%TO.C,IC2*%
X54102000Y-41910000D03*
X52002000Y-40960000D03*
X52002000Y-42860000D03*
%TD*%
D16*
%TO.C,IC1*%
X62230000Y-49898000D03*
X60960000Y-49898000D03*
X59690000Y-49898000D03*
X58420000Y-49898000D03*
X57150000Y-49898000D03*
X55880000Y-49898000D03*
X54610000Y-49898000D03*
X53340000Y-49898000D03*
X52070000Y-49898000D03*
X50800000Y-49898000D03*
X50800000Y-59322000D03*
X52070000Y-59322000D03*
X53340000Y-59322000D03*
X54610000Y-59322000D03*
X55880000Y-59322000D03*
X57150000Y-59322000D03*
X58420000Y-59322000D03*
X59690000Y-59322000D03*
X60960000Y-59322000D03*
X62230000Y-59322000D03*
%TD*%
%TO.C,C12*%
G36*
G01*
X35952000Y-48656002D02*
X35952000Y-47355998D01*
G75*
G02*
X36201998Y-47106000I249998J0D01*
G01*
X37027002Y-47106000D01*
G75*
G02*
X37277000Y-47355998I0J-249998D01*
G01*
X37277000Y-48656002D01*
G75*
G02*
X37027002Y-48906000I-249998J0D01*
G01*
X36201998Y-48906000D01*
G75*
G02*
X35952000Y-48656002I0J249998D01*
G01*
G37*
G36*
G01*
X32827000Y-48656002D02*
X32827000Y-47355998D01*
G75*
G02*
X33076998Y-47106000I249998J0D01*
G01*
X33902002Y-47106000D01*
G75*
G02*
X34152000Y-47355998I0J-249998D01*
G01*
X34152000Y-48656002D01*
G75*
G02*
X33902002Y-48906000I-249998J0D01*
G01*
X33076998Y-48906000D01*
G75*
G02*
X32827000Y-48656002I0J249998D01*
G01*
G37*
%TD*%
%TO.C,C11*%
G36*
G01*
X38846998Y-40905000D02*
X40147002Y-40905000D01*
G75*
G02*
X40397000Y-41154998I0J-249998D01*
G01*
X40397000Y-41980002D01*
G75*
G02*
X40147002Y-42230000I-249998J0D01*
G01*
X38846998Y-42230000D01*
G75*
G02*
X38597000Y-41980002I0J249998D01*
G01*
X38597000Y-41154998D01*
G75*
G02*
X38846998Y-40905000I249998J0D01*
G01*
G37*
G36*
G01*
X38846998Y-37780000D02*
X40147002Y-37780000D01*
G75*
G02*
X40397000Y-38029998I0J-249998D01*
G01*
X40397000Y-38855002D01*
G75*
G02*
X40147002Y-39105000I-249998J0D01*
G01*
X38846998Y-39105000D01*
G75*
G02*
X38597000Y-38855002I0J249998D01*
G01*
X38597000Y-38029998D01*
G75*
G02*
X38846998Y-37780000I249998J0D01*
G01*
G37*
%TD*%
%TO.C,C10*%
G36*
G01*
X45100002Y-48884000D02*
X43799998Y-48884000D01*
G75*
G02*
X43550000Y-48634002I0J249998D01*
G01*
X43550000Y-47808998D01*
G75*
G02*
X43799998Y-47559000I249998J0D01*
G01*
X45100002Y-47559000D01*
G75*
G02*
X45350000Y-47808998I0J-249998D01*
G01*
X45350000Y-48634002D01*
G75*
G02*
X45100002Y-48884000I-249998J0D01*
G01*
G37*
G36*
G01*
X45100002Y-52009000D02*
X43799998Y-52009000D01*
G75*
G02*
X43550000Y-51759002I0J249998D01*
G01*
X43550000Y-50933998D01*
G75*
G02*
X43799998Y-50684000I249998J0D01*
G01*
X45100002Y-50684000D01*
G75*
G02*
X45350000Y-50933998I0J-249998D01*
G01*
X45350000Y-51759002D01*
G75*
G02*
X45100002Y-52009000I-249998J0D01*
G01*
G37*
%TD*%
%TO.C,C9*%
G36*
G01*
X35952000Y-45100002D02*
X35952000Y-43799998D01*
G75*
G02*
X36201998Y-43550000I249998J0D01*
G01*
X37027002Y-43550000D01*
G75*
G02*
X37277000Y-43799998I0J-249998D01*
G01*
X37277000Y-45100002D01*
G75*
G02*
X37027002Y-45350000I-249998J0D01*
G01*
X36201998Y-45350000D01*
G75*
G02*
X35952000Y-45100002I0J249998D01*
G01*
G37*
G36*
G01*
X32827000Y-45100002D02*
X32827000Y-43799998D01*
G75*
G02*
X33076998Y-43550000I249998J0D01*
G01*
X33902002Y-43550000D01*
G75*
G02*
X34152000Y-43799998I0J-249998D01*
G01*
X34152000Y-45100002D01*
G75*
G02*
X33902002Y-45350000I-249998J0D01*
G01*
X33076998Y-45350000D01*
G75*
G02*
X32827000Y-45100002I0J249998D01*
G01*
G37*
%TD*%
%TO.C,C8*%
G36*
G01*
X43799998Y-56018000D02*
X45100002Y-56018000D01*
G75*
G02*
X45350000Y-56267998I0J-249998D01*
G01*
X45350000Y-57093002D01*
G75*
G02*
X45100002Y-57343000I-249998J0D01*
G01*
X43799998Y-57343000D01*
G75*
G02*
X43550000Y-57093002I0J249998D01*
G01*
X43550000Y-56267998D01*
G75*
G02*
X43799998Y-56018000I249998J0D01*
G01*
G37*
G36*
G01*
X43799998Y-52893000D02*
X45100002Y-52893000D01*
G75*
G02*
X45350000Y-53142998I0J-249998D01*
G01*
X45350000Y-53968002D01*
G75*
G02*
X45100002Y-54218000I-249998J0D01*
G01*
X43799998Y-54218000D01*
G75*
G02*
X43550000Y-53968002I0J249998D01*
G01*
X43550000Y-53142998D01*
G75*
G02*
X43799998Y-52893000I249998J0D01*
G01*
G37*
%TD*%
%TO.C,C7*%
G36*
G01*
X60717000Y-46751002D02*
X60717000Y-45450998D01*
G75*
G02*
X60966998Y-45201000I249998J0D01*
G01*
X61792002Y-45201000D01*
G75*
G02*
X62042000Y-45450998I0J-249998D01*
G01*
X62042000Y-46751002D01*
G75*
G02*
X61792002Y-47001000I-249998J0D01*
G01*
X60966998Y-47001000D01*
G75*
G02*
X60717000Y-46751002I0J249998D01*
G01*
G37*
G36*
G01*
X57592000Y-46751002D02*
X57592000Y-45450998D01*
G75*
G02*
X57841998Y-45201000I249998J0D01*
G01*
X58667002Y-45201000D01*
G75*
G02*
X58917000Y-45450998I0J-249998D01*
G01*
X58917000Y-46751002D01*
G75*
G02*
X58667002Y-47001000I-249998J0D01*
G01*
X57841998Y-47001000D01*
G75*
G02*
X57592000Y-46751002I0J249998D01*
G01*
G37*
%TD*%
%TO.C,C6*%
G36*
G01*
X35952000Y-61356002D02*
X35952000Y-60055998D01*
G75*
G02*
X36201998Y-59806000I249998J0D01*
G01*
X37027002Y-59806000D01*
G75*
G02*
X37277000Y-60055998I0J-249998D01*
G01*
X37277000Y-61356002D01*
G75*
G02*
X37027002Y-61606000I-249998J0D01*
G01*
X36201998Y-61606000D01*
G75*
G02*
X35952000Y-61356002I0J249998D01*
G01*
G37*
G36*
G01*
X32827000Y-61356002D02*
X32827000Y-60055998D01*
G75*
G02*
X33076998Y-59806000I249998J0D01*
G01*
X33902002Y-59806000D01*
G75*
G02*
X34152000Y-60055998I0J-249998D01*
G01*
X34152000Y-61356002D01*
G75*
G02*
X33902002Y-61606000I-249998J0D01*
G01*
X33076998Y-61606000D01*
G75*
G02*
X32827000Y-61356002I0J249998D01*
G01*
G37*
%TD*%
%TO.C,C5*%
G36*
G01*
X54621000Y-46751002D02*
X54621000Y-45450998D01*
G75*
G02*
X54870998Y-45201000I249998J0D01*
G01*
X55696002Y-45201000D01*
G75*
G02*
X55946000Y-45450998I0J-249998D01*
G01*
X55946000Y-46751002D01*
G75*
G02*
X55696002Y-47001000I-249998J0D01*
G01*
X54870998Y-47001000D01*
G75*
G02*
X54621000Y-46751002I0J249998D01*
G01*
G37*
G36*
G01*
X51496000Y-46751002D02*
X51496000Y-45450998D01*
G75*
G02*
X51745998Y-45201000I249998J0D01*
G01*
X52571002Y-45201000D01*
G75*
G02*
X52821000Y-45450998I0J-249998D01*
G01*
X52821000Y-46751002D01*
G75*
G02*
X52571002Y-47001000I-249998J0D01*
G01*
X51745998Y-47001000D01*
G75*
G02*
X51496000Y-46751002I0J249998D01*
G01*
G37*
%TD*%
%TO.C,C4*%
G36*
G01*
X52059000Y-37449998D02*
X52059000Y-38750002D01*
G75*
G02*
X51809002Y-39000000I-249998J0D01*
G01*
X50983998Y-39000000D01*
G75*
G02*
X50734000Y-38750002I0J249998D01*
G01*
X50734000Y-37449998D01*
G75*
G02*
X50983998Y-37200000I249998J0D01*
G01*
X51809002Y-37200000D01*
G75*
G02*
X52059000Y-37449998I0J-249998D01*
G01*
G37*
G36*
G01*
X55184000Y-37449998D02*
X55184000Y-38750002D01*
G75*
G02*
X54934002Y-39000000I-249998J0D01*
G01*
X54108998Y-39000000D01*
G75*
G02*
X53859000Y-38750002I0J249998D01*
G01*
X53859000Y-37449998D01*
G75*
G02*
X54108998Y-37200000I249998J0D01*
G01*
X54934002Y-37200000D01*
G75*
G02*
X55184000Y-37449998I0J-249998D01*
G01*
G37*
%TD*%
%TO.C,C3*%
G36*
G01*
X47863998Y-39050000D02*
X49164002Y-39050000D01*
G75*
G02*
X49414000Y-39299998I0J-249998D01*
G01*
X49414000Y-40125002D01*
G75*
G02*
X49164002Y-40375000I-249998J0D01*
G01*
X47863998Y-40375000D01*
G75*
G02*
X47614000Y-40125002I0J249998D01*
G01*
X47614000Y-39299998D01*
G75*
G02*
X47863998Y-39050000I249998J0D01*
G01*
G37*
G36*
G01*
X47863998Y-42175000D02*
X49164002Y-42175000D01*
G75*
G02*
X49414000Y-42424998I0J-249998D01*
G01*
X49414000Y-43250002D01*
G75*
G02*
X49164002Y-43500000I-249998J0D01*
G01*
X47863998Y-43500000D01*
G75*
G02*
X47614000Y-43250002I0J249998D01*
G01*
X47614000Y-42424998D01*
G75*
G02*
X47863998Y-42175000I249998J0D01*
G01*
G37*
%TD*%
%TO.C,C2*%
G36*
G01*
X35952000Y-57800002D02*
X35952000Y-56499998D01*
G75*
G02*
X36201998Y-56250000I249998J0D01*
G01*
X37027002Y-56250000D01*
G75*
G02*
X37277000Y-56499998I0J-249998D01*
G01*
X37277000Y-57800002D01*
G75*
G02*
X37027002Y-58050000I-249998J0D01*
G01*
X36201998Y-58050000D01*
G75*
G02*
X35952000Y-57800002I0J249998D01*
G01*
G37*
G36*
G01*
X32827000Y-57800002D02*
X32827000Y-56499998D01*
G75*
G02*
X33076998Y-56250000I249998J0D01*
G01*
X33902002Y-56250000D01*
G75*
G02*
X34152000Y-56499998I0J-249998D01*
G01*
X34152000Y-57800002D01*
G75*
G02*
X33902002Y-58050000I-249998J0D01*
G01*
X33076998Y-58050000D01*
G75*
G02*
X32827000Y-57800002I0J249998D01*
G01*
G37*
%TD*%
%TO.C,C1*%
G36*
G01*
X43318000Y-61864002D02*
X43318000Y-60563998D01*
G75*
G02*
X43567998Y-60314000I249998J0D01*
G01*
X44393002Y-60314000D01*
G75*
G02*
X44643000Y-60563998I0J-249998D01*
G01*
X44643000Y-61864002D01*
G75*
G02*
X44393002Y-62114000I-249998J0D01*
G01*
X43567998Y-62114000D01*
G75*
G02*
X43318000Y-61864002I0J249998D01*
G01*
G37*
G36*
G01*
X40193000Y-61864002D02*
X40193000Y-60563998D01*
G75*
G02*
X40442998Y-60314000I249998J0D01*
G01*
X41268002Y-60314000D01*
G75*
G02*
X41518000Y-60563998I0J-249998D01*
G01*
X41518000Y-61864002D01*
G75*
G02*
X41268002Y-62114000I-249998J0D01*
G01*
X40442998Y-62114000D01*
G75*
G02*
X40193000Y-61864002I0J249998D01*
G01*
G37*
%TD*%
M02*
